<svg version="1.2" xmlns="http://www.w3.org/2000/svg" viewBox="0 0 1006 1174" width="1006" height="1174">
	<title>OIG</title>
	<style>
		tspan { white-space:pre } 
		.s0 { fill: none;stroke: #4d6a37;stroke-width: 2 } 
		.s1 { fill: #7fb954 } 
		.s2 { fill: #1a1a19 } 
		.t3 { font-size: 60px;fill: #396c13;font-weight: 400;font-family: "UbuntuMono-Regular", "Ubuntu Mono" } 
	</style>
	<g id="Folder 3">
		<filter id="f0">
			<feFlood flood-color="#396c13" flood-opacity="1" />
			<feBlend mode="normal" in2="SourceGraphic"/>
			<feComposite in2="SourceAlpha" operator="in" />
		</filter>
		<g id="Folder 2" filter="url(#f0)">
			<path id="Layer" fill-rule="evenodd" class="s0" d="m624.7 826.9q-0.3 0.4-0.3 0.8 0 0.2 0.1 0.3 0.1 0.1 0.2 0.2 0.2 0.1 0.3 0.1 0.2 0 0.3-0.1c26.9-19.9 55.6-37.7 83.7-56.1 7.9-5.2 18.8-14.5 20.6-24.8 1.3-7.2 0.9-16.5 2.6-23.9q4.4-20 16.4-36.9 0.5-0.7 0.1-1.4-0.1-0.2-0.3-0.1-37.7 33.7-71.5 71.3c-20.7 23.1-36.5 45.6-52.2 70.6z"/>
			<path id="Layer" fill-rule="evenodd" class="s0" d="m518.2 288.1c0.2 60.4-0.2 120.7-0.7 181.1q0 5.3-0.7 10.6-0.2 1.1 0.5 1.6 0.2 0.1 0.4 0.1 0.2 0.1 0.3 0 0.2-0.1 0.4-0.2 0.1-0.1 0.2-0.3c6.6-16.5 17.3-31.6 27.9-45.9q0.2-0.2 0.3-0.5 0.1-0.3 0.2-0.6 0.1-0.3 0.2-0.6 0-0.3 0-0.6-0.3-38-0.2-75.8c0.1-20.1 29.1-17.5 29.2 2.5q0.1 24.5 0 47.1 0 4.5 2.3 0.7 0.7-1 2.5-2.9c5.4-5.3 17.6-14.9 25.5-14.3q4.7 0.4 8.4 3.9c6.7 6.5 7 16.3-0.4 22.4q-9.3 7.8-18.6 15.7-52.4 44.9-74.7 110.4-2.7 8-2.7 11.5 0 26.8-1.7 52.7-0.2 2.5 1.1 0.3c2.2-3.7 3.5-7.9 5.8-11.8 10.1-17.7 21.4-31.6 36.5-49.2q24.3-28.2 53.9-50.5c3.3-2.5 8.9-5.3 13.2-5.1 6.3 0.3 11.9 5.2 13.3 11.2 1.8 7.1-3.1 13.5-9.1 18.1q-58.5 45.5-94.1 110.6-9.2 16.9-14.7 33.9c-3.2 10-5.1 19.5-5.1 30.6q0 123.3 0 245.3 0 3.8 2.5 0.8 1-1.3 2.3-3.1c3-4 6.5-5.8 6.9-11.4 0.8-10.6 1.1-21 1.5-31.6 0.2-4 1.2-8.6 1.4-13q0.1-5.7 0.8-9.5c1.1-6.3 1.7-13.3 2.6-18.8 13.7-82 48.3-159.5 95.9-227.4 13.2-18.9 31.4-43 46.5-65.8 11.1-16.7 21.7-35.2 32.5-52.7q9.2-14.9 24.4-44.7c8.1-15.9 15.1-31.7 17.9-49.5q2.9-18.2-9.4-29.8c-3.8-3.6-10.2-6.9-14.2-10.3-12.1-10-15.5-23.2-15.9-38.5-0.2-9.5-1-19.8-5.2-28.6-5.2-10.8-14.5-14.7-25.4-16.9q-16-3.4-22.1-5.6c-17.3-6.3-29.4-21.1-29.9-39.6-0.5-16.4 8.5-29.6 17.3-42.4q5.3-7.7 6.9-11.5c13.5-33.3-33.5-52.9-49.9-74.7-8.3-11-10.4-23.3-13.7-37.5-5.5-23.6-25.8-40.2-49.4-45.8-16.8-4-35.2-2.4-51.4 3.5-21.8 7.9-37.7 25.3-61.3 28.4-2.9 0.3-5.7 1-8.6 1-21.1-0.1-40.7-2.3-49.3 21-1.7 4.7-3.4 8.6-3.9 13.7q-1.3 13.9-1.7 27.8-0.4 13.3-9.1 23.3c-8.5 9.7-16.6 16.5-13 30.5 2.9 10.9 8.9 20.7 9.6 32 1.1 16.6-7.1 30.9-23.5 35.7q-7.3 2.2-14.8 4.1c-17.6 4.6-24.4 28.8-23.3 44.8q0.6 9.7 1.8 19.4 1.6 14.2 1.1 19.4-1.5 14.2-10.4 25.8c-5.1 6.7-13.7 16.5-18.1 24.6q-15.8 28.7-2.8 60.7c10.1 24.7 25.4 46.2 38.8 69 34 58.1 59.3 118.6 80.7 182.5q3.4 10.3 7.1 23.2c13 46.2 25.5 93.1 40.9 138q16.6 48.4 55.5 82.3 0.6 0.5 0.6-0.3c-0.2-16.2 0.1-32.9 0-48.7q-0.7-122.6 0.2-245.3c0.1-5.4-0.4-11.7-2.6-15.6q-3.8-6.8-7.3-13.7-34.9-68.3-98.8-110.3c-3-1.9-7.3-5.5-8.7-7.8-3.2-5.3-3.1-15.6 2.8-20 11.4-8.6 27.3 2.5 35.7 10.8q0.6 0.5 0.9 0.5 0.7 0 0.5-0.6-5.7-21.3-12.5-41.5c-2.5-7.5-7.6-21.3-0.2-27.1 12.6-9.8 23.1-0.8 27.1 11.5 8.6 26.8 16.4 53.7 21.5 81.5 0.6 3.4 1.8 7.4 3.8 9.6 12.3 13.5 24.6 28 33.8 43.9q1.5 2.5 1.8 5.3 0 0.2 0.1 0.3 0.1 0.1 0.2 0.2 0.2 0.1 0.3 0.1 0.2 0.1 0.4 0l0.4-0.1q0.4-0.1 0.4-0.5 0.3-53.5-0.2-106.8-0.2-16-1.5-24.2-2.6-15.2-9.1-29.4c-13.6-29.9-34.8-55.8-60-76.6-8.6-7.1-10.6-22.2 1.6-26.6 9-3.2 15 1.1 21.5 6.4 17.6 14.5 33.5 31 45.3 50.6q0.4 0.5 0.4 1.2 0.1 1.4 1.3 2.1 0.1 0.1 0.2 0.1 0.1 0 0.2-0.1 0.1 0 0.2-0.1 0-0.1 0-0.2c0.7-73.1 0.2-146 0.8-219q0-4.9 0.3-10.1c0.8-11.2-1.2-17.9 11.4-22q3.2-1 5.8-0.4 5.9 1.5 9.7 6c2.6 3 3 7.7 3.1 11.4q0.7 39.3 0.4 78.5 0 0.8 0.9 0.7 0.1-0.1 0.4-0.3 0.1-0.1 0.2-0.3c10.1-19.6 25.8-37.6 42.3-52.8 6.4-5.9 14.6-9.5 22.5-3.8 7.3 5.3 7.9 15.6 1.5 22-19.7 19.7-37.6 40.8-52.2 64.7-6.9 11.2-15.4 28.7-15.4 42z"/>
			<path id="Layer" fill-rule="evenodd" class="s0" d="m269.1 91.9c-21.7 5.9-37.7 23-47.8 42.4q-3.3 6.3-8.3 21.8c-8.2 25.1-20.4 65.3-48.4 75.2q-8.3 2.9-13 3.1-23.4 0.6-41.5 15.7c-17 14.3-24.8 35.6-15.3 56.6q5.7 12.5 6.9 16.5c6.2 20-6.6 35.9-24.9 42.5q-10.7 3.8-18.3 8.9c-26 17.4-37.1 53.3-17.1 80 5.5 7.3 15.1 14.6 20.2 19.5 11.8 11.1 20 20.7 18.4 38.4-2 21.8-16.2 45.6-3.1 66.6 8.5 13.5 23.3 22.7 39 25.6q17.7 3.2 35.4 6.3 48.5 8.7 76.2 47.2c12.4 17.2 15.6 34.6 18.2 55.1q1.5 11.9 3.6 17.5c6.2 17.4 21.4 31.1 36.6 40.4q16.9 10.3 62.6 37.4 4.2 2.5 8.3 5.3 0.2 0.1 0.4 0.1 0.2 0.1 0.4 0 0.2-0.1 0.3-0.3 0.2-0.2 0.2-0.4 0.1-0.4-0.2-1.1c-17.9-43.7-44.6-83.1-76.4-117.8q-29.2-31.8-45.2-46.3-18.2-16.7-29.9-28-25.2-24.3-46.9-53.6-3.5-4.8-4.2-8.5c-1.4-7.3 3.1-13.9 9.9-16.1 6.7-2.1 13.2 0.4 17.6 5.8q16.3 20.6 22.5 27.2 24.9 26.5 51.4 51.4c17.5 16.2 35.9 34.8 50.1 50.7q34.1 38.3 60.9 86.5 0.2 0.4 0.6 0.5 0.1 0 0.3 0.1 0.1 0 0.2 0 0.1 0 0.2-0.1 0.1-0.1 0.1-0.2 0-0.1 0-0.2-1.3-3.5-2.2-7.1c-16.9-69-44.4-136.5-77.4-199.1-12.5-23.6-26.7-46.5-40.4-69.3-8.5-14.2-16.1-28.8-24-43.3-19.4-35.5-49.7-65.8-78.9-92-8.8-8-8.2-22 3.8-26.1 6.3-2.1 14.9 1.8 19.3 5.7q18.1 15.9 34.7 33.6 0.5 0.6 1.1 0 0.2-0.1 0.1-0.7-0.4-13.5-0.3-27 0.1-7.2 1.7-10.5c5.9-12.4 25.3-9.2 27.3 4.4 2.1 14.9 1.3 31 1.4 46.3q0 0.1 0.1 0.3 0.1 0.1 0.2 0.1 0.2 0.1 0.3 0 0.2-0.1 0.3-0.2c3.4-6.4 5.1-11.6 10.3-18.8 7.3-10.1 18.8-18.5 17.4-34.6q-1.5-19.3-9.7-44.9c-3.8-11.9-8.7-24.5-11.7-35.7q-8.1-30.1-11.8-61c-0.7-5.7 0-15.1 5.2-18.6 10.9-7.5 21.5-1.1 23.5 11.1 3.8 23.5 8.3 46.7 15.5 69.4q0.1 0.2 0.3 0.4 0.1 0.1 0.4 0.1 0.2 0.1 0.4 0 0.2-0.1 0.3-0.3c9.8-15.9 23.7-21 41.3-24.6 1.9-0.4 4.2-1.4 4.5-3.3 1.4-8.6-5.8-18.3-8.1-25.6-5.1-16.4-3.1-35.1 8.1-48.6q3.6-4.4 7.4-8.6c9.9-11 0.9-21.8-8.2-28.6-8.8-6.5-19.1-12.6-30-14.7"/>
			<path id="Layer" fill-rule="evenodd" class="s0" d="m766.5 196.9c-10.8 28.1-19.8 56.3-24.9 86q-1.4 8.1-0.9 16.3 1 16.7 3.1 33.4c1.7 13.3 9.2 18.6 19.1 26.2 10.2 7.8 16.1 19 19.4 31.3q0.6 2.1 1.7 0.3l6.7-10.2q0.1-0.2 0.2-0.4 0.1-0.2 0.2-0.4 0-0.2 0.1-0.4 0-0.2 0-0.4 0-45.9 0-92.3 0-3.7 0.3-5.7c1.4-9.3 9.8-14.4 18.4-11.5 4.2 1.5 10.1 6.1 10.1 11q-0.1 32 0.2 64 0 4.1-0.3 8.3 0 0.2 0 0.3 0.1 0.1 0.2 0.2 0 0 0.2 0.1 0.1 0 0.2 0 0.2-0.1 0.4-0.2 0.2 0 0.4-0.2c20-21.4 44.1-38.6 69.9-52.3 18.9-10.1 34.6 13.9 14.1 25.8-42.6 24.9-79.3 58.2-108.8 97.9q-4.2 5.5-8.1 11.9c-19.4 31.4-36.2 64.5-57.5 94.6q-1.6 2.3 0.7 0.7c18.7-12.6 40.6-22.1 61.9-29.1q8.4-2.8 12.6-2.5c11 0.8 18.3 13.6 9.6 22.6q-2.2 2.4-9.8 5.5-10.5 4.4-21 8.8-23.5 9.9-52.5 29c-39 25.8-67 59.6-91.4 99.1-17.3 28.2-33.3 57.2-45.1 87.4-12.6 32.3-22.7 65-28.4 99.2q-2.7 15.8-5 31.5-0.2 1.3-0.2 1.5 0.8 2.9 2 0.2 10.4-23.1 21.3-46c17.2-36.1 39-69.9 66.3-99.4 44.7-48.3 92.8-91.1 139.4-136.5q3.9-3.9 9.1-9.5c7.4-8.1 19.1-24.7 32-16.5 11.5 7.2 6.1 18-0.6 26q-21.3 25.7-46.3 47.9-0.8 0.7-0.9 0.9-1.2 2.4 1.2 1.1 13-7.3 27.5-11.7 16.3-4.9 45.8-8.2 20.1-2.2 25.6-3.4c21.1-4.6 42-15.2 46.7-37.7q0.8-4 0.6-17.2c-0.3-21.6 1.7-41.2 14.6-59.3q8.1-11.2 11.1-14 6.6-6 11-12.3c16.5-24.1-7.9-46.5-25.9-58.6q-8-5.5-13.5-11.6c-13.4-14.9-6.4-38.4 5.3-51.9 14-16.5 30.1-26.5 26.3-50.3-3-18.8-18-32-31.2-44.3-11.9-11.1-21.3-27.1-24.1-44.4-0.6-4-9.3-2.4-11.5-2.1-13.5 1.3-24.3 1.9-35.2-1.2-25.4-7.2-32.1-30.2-37.5-52.8-5-20.9-19.4-36.8-39.5-44.7q-15.6-6.1-32.2-8.2c-18.2-2.4-37.1-3.8-55.5-2.4-8.6 0.7-22.8 7.6-22 18.7 0.3 4.6 5.3 11.1 7.9 15.2 13.5 21.7 9.3 46.2-4.3 66.6q-5.3 8-10.8 16.1c-11.5 16.9 6.9 22.7 18.9 24.9 10 1.8 19.6 4.6 28.3 10q0.3 0.2 0.5 0.2 0.3 0 0.5-0.1 0.3-0.1 0.4-0.3 0.2-0.2 0.3-0.4 1.4-6.6 3-13.3 6.2-26.2 15.8-51.4 3.2-8.4 6.4-17c3.3-8.7 7.4-15.9 17.6-14q8.1 1.5 11.7 8.8c2.4 4.9-0.1 12.1-1.9 16.8z"/>
			<path id="Layer" class="s1" d="m624.7 826.9c15.7-25 31.5-47.5 52.2-70.6q33.8-37.6 71.5-71.3 0.2-0.1 0.3 0.1 0.4 0.7-0.1 1.4-12 16.9-16.4 36.9c-1.7 7.4-1.3 16.7-2.6 23.9-1.8 10.3-12.7 19.6-20.6 24.8-28.1 18.4-56.8 36.2-83.7 56.1q-0.1 0.1-0.3 0.1-0.1 0-0.3-0.1-0.1-0.1-0.2-0.2-0.1-0.1-0.1-0.3 0-0.4 0.3-0.8z"/>
			<path id="Layer" fill-rule="evenodd" class="s0" d="m865.5 460.6c0-1.7-0.4-3.4-1.1-5-0.7-1.6-1.7-3-2.9-4.2-1.2-1.2-2.7-2.2-4.3-2.8-1.6-0.6-3.3-1-5.1-0.9l-41.7 0.5c-1.8 0.1-3.5 0.4-5.1 1.1-1.6 0.7-3 1.7-4.2 2.9-1.2 1.3-2.2 2.7-2.8 4.3-0.6 1.7-1 3.4-0.9 5.1v1.6c0 1.8 0.4 3.5 1.1 5.1 0.6 1.5 1.6 3 2.9 4.2 1.2 1.2 2.7 2.1 4.3 2.8 1.6 0.6 3.3 0.9 5 0.9l41.8-0.6c1.8 0 3.5-0.4 5.1-1 1.5-0.7 3-1.7 4.2-3 1.2-1.2 2.1-2.7 2.8-4.3 0.6-1.6 0.9-3.3 0.9-5z"/>
			<path id="Layer" fill-rule="evenodd" class="s2" d="m644.9 108.6q20.8-21.2 51.2-22.4c11.9-0.4 22.4-1.4 35.4-0.4q6.9 0.5 31.8 3.7 22 2.7 44 14.8c18.1 9.9 33.7 26.7 40.5 46.4q2.2 6.4 6.7 25.5 0.4 2 2.6 6.5c4.8 10.2 14.1 13.7 25 12.9 17.6-1.4 46.5-8.1 52 16.7 1.9 8.3 3.3 16.3 7.4 24.2q2.7 5.2 10 12.7c11.5 11.7 22.7 21.8 31.4 37 16.1 27.8 11.9 59.1-8.2 83.5q-3.4 4.1-15.2 16.3c-5 5.1-7.3 12-0.2 17.1 20.7 14.9 39.5 31 44.9 57.3 4 19.5-4.3 42.1-17.4 55.9-10.9 11.4-21.7 23-23.5 38.1-0.8 6.2 0.3 14.4 0.5 21.4 0.7 22.6-7.2 44.6-23.6 60.1-23.7 22.3-58 24.9-89.9 28.4-36.7 4-76.8 19.4-86.2 59.7-1.3 5.6-1.6 12.9-2.1 19.4-2.1 28.1-22.7 46-45.2 60.4q-21.1 13.6-42.3 27.2-32.8 21.1-57.3 45c-20.2 19.7-39.5 43.9-57.7 68.8-10.4 14.2-22.6 27.9-39.9 33.4-26 8.3-48.8-2.3-66-22.1q-18.6-21.4-37-43.1c-26.6-31.4-56.4-58.8-90.7-81.4-16.8-11.1-39.9-23.1-53.8-31.7-24-14.8-52.6-42.2-55.9-72q-0.9-7.8-1.7-15.7c-3.8-34.7-24-57.4-56.5-67.8-13.5-4.4-31.6-6.5-47.2-9.1q-32.9-5.5-53.2-30.2c-22.1-26.9-19.4-56-9.5-86.7q1.3-4.1 1.2-6.6c-0.7-10-13.4-19.3-21.3-25.6-7-5.5-12.3-14.2-16.8-21.9-24.2-41.9-6.9-92.5 32.6-116.8 7.6-4.6 16.6-8.2 25.3-11.4q0.7-0.3 1.2-0.8 0.5-0.5 0.8-1.1 0.3-0.7 0.3-1.4 0-0.7-0.3-1.4-4.4-10.6-8.5-21.9c-6.9-19.1-1.5-41.3 8.4-58.8 12.5-22.1 30.8-37.5 55.9-43.1 11.9-2.7 25.5-0.8 34.1-11.3 14.2-17.6 18.8-41.7 26.5-62.4q11.7-31.7 37.1-52.6c33.2-27.2 78.2-28.4 112.4-2.1q0.1 0.1 0.3 0.2 0.1 0.1 0.3 0.2 0.1 0 0.3 0 0.2 0 0.3 0 2.3-0.2 2.4-2.5 0-0.1 0-0.3 0-0.1 0-0.2 0.1-0.2 0.1-0.3 0.1-0.1 0.1-0.3c2-3.9 3.7-8.2 5.8-11.6q14.6-24 42-28.7c13.2-2.3 26.6 0.4 39.9-2.8q5.1-1.3 11.6-5c12.9-7.5 24.7-15.6 39.4-20.6 50.6-17 117.2-4.2 138.2 51.5 3.2 8.4 4.4 19.1 8.3 28q5.7 12.9 16.7 21.9 0.3 0.2 0.6 0.3 0.2 0.1 0.5 0.1 0.3-0.1 0.6-0.2 0.3-0.1 0.5-0.3zm-126.7 179.5c0.2 60.4-0.2 120.7-0.7 181.1q0 5.3-0.7 10.6-0.2 1.1 0.5 1.6 0.2 0.1 0.4 0.1 0.2 0.1 0.3 0 0.2-0.1 0.4-0.2 0.1-0.1 0.2-0.3c6.6-16.5 17.3-31.6 27.9-45.9q0.2-0.2 0.3-0.5 0.1-0.3 0.2-0.6 0.1-0.3 0.2-0.6 0-0.3 0-0.6-0.3-38-0.2-75.8c0.1-20.1 29.1-17.5 29.2 2.5q0.1 24.5 0 47.1 0 4.5 2.3 0.7 0.7-1 2.5-2.9c5.4-5.3 17.6-14.9 25.5-14.3q4.7 0.4 8.4 3.9c6.7 6.5 7 16.3-0.4 22.4q-9.3 7.8-18.6 15.7-52.4 44.9-74.7 110.4-2.7 8-2.7 11.5 0 26.8-1.7 52.7-0.2 2.5 1.1 0.3c2.2-3.7 3.5-7.9 5.8-11.8 10.1-17.7 21.4-31.6 36.5-49.2q24.3-28.2 53.9-50.5c3.3-2.5 8.9-5.3 13.2-5.1 6.3 0.3 11.9 5.2 13.3 11.2 1.8 7.1-3.1 13.5-9.1 18.1q-58.5 45.5-94.1 110.6-9.2 16.9-14.7 33.9c-3.2 10-5.1 19.5-5.1 30.6q0 123.3 0 245.3 0 3.8 2.5 0.8 1-1.3 2.3-3.1c3-4 6.5-5.8 6.9-11.4 0.8-10.6 1.1-21 1.5-31.6 0.2-4 1.2-8.6 1.4-13q0.1-5.7 0.8-9.5c1.1-6.3 1.7-13.3 2.6-18.8 13.7-82 48.3-159.5 95.9-227.4 13.2-18.9 31.4-43 46.5-65.8 11.1-16.7 21.7-35.2 32.5-52.7q9.2-14.9 24.4-44.7c8.1-15.9 15.1-31.7 17.9-49.5q2.9-18.2-9.4-29.8c-3.8-3.6-10.2-6.9-14.2-10.3-12.1-10-15.5-23.2-15.9-38.5-0.2-9.5-1-19.8-5.2-28.6-5.2-10.8-14.5-14.7-25.4-16.9q-16-3.4-22.1-5.6c-17.3-6.3-29.4-21.1-29.9-39.6-0.5-16.4 8.5-29.6 17.3-42.4q5.3-7.7 6.9-11.5c13.5-33.3-33.5-52.9-49.9-74.7-8.3-11-10.4-23.3-13.7-37.5-5.5-23.6-25.8-40.2-49.4-45.8-16.8-4-35.2-2.4-51.4 3.5-21.8 7.9-37.7 25.3-61.3 28.4-2.9 0.3-5.7 1-8.6 1-21.1-0.1-40.7-2.3-49.3 21-1.7 4.7-3.4 8.6-3.9 13.7q-1.3 13.9-1.7 27.8-0.4 13.3-9.1 23.3c-8.5 9.7-16.6 16.5-13 30.5 2.9 10.9 8.9 20.7 9.6 32 1.1 16.6-7.1 30.9-23.5 35.7q-7.3 2.2-14.8 4.1c-17.6 4.6-24.4 28.8-23.3 44.8q0.6 9.7 1.8 19.4 1.6 14.2 1.1 19.4-1.5 14.2-10.4 25.8c-5.1 6.7-13.7 16.5-18.1 24.6q-15.8 28.7-2.8 60.7c10.1 24.7 25.4 46.2 38.8 69 34 58.1 59.3 118.6 80.7 182.5q3.4 10.3 7.1 23.2c13 46.2 25.5 93.1 40.9 138q16.6 48.4 55.5 82.3 0.6 0.5 0.6-0.3c-0.2-16.2 0.1-32.9 0-48.7q-0.7-122.6 0.2-245.3c0.1-5.4-0.4-11.7-2.6-15.6q-3.8-6.8-7.3-13.7-34.9-68.3-98.8-110.3c-3-1.9-7.3-5.5-8.7-7.8-3.2-5.3-3.1-15.6 2.8-20 11.4-8.6 27.3 2.5 35.7 10.8q0.6 0.5 0.9 0.5 0.7 0 0.5-0.6-5.7-21.3-12.5-41.5c-2.5-7.5-7.6-21.3-0.2-27.1 12.6-9.8 23.1-0.8 27.1 11.5 8.6 26.8 16.4 53.7 21.5 81.5 0.6 3.4 1.8 7.4 3.8 9.6 12.3 13.5 24.6 28 33.8 43.9q1.5 2.5 1.8 5.3 0 0.2 0.1 0.3 0.1 0.1 0.2 0.2 0.2 0.1 0.3 0.1 0.2 0.1 0.4 0l0.4-0.1q0.4-0.1 0.4-0.5 0.3-53.5-0.2-106.8-0.2-16-1.5-24.2-2.6-15.2-9.1-29.4c-13.6-29.9-34.8-55.8-60-76.6-8.6-7.1-10.6-22.2 1.6-26.6 9-3.2 15 1.1 21.5 6.4 17.6 14.5 33.5 31 45.3 50.6q0.4 0.5 0.4 1.2 0.1 1.4 1.3 2.1 0.1 0.1 0.2 0.1 0.1 0 0.2-0.1 0.1 0 0.2-0.1 0-0.1 0-0.2c0.7-73.1 0.2-146 0.8-219q0-4.9 0.3-10.1c0.8-11.2-1.2-17.9 11.4-22q3.2-1 5.8-0.4 5.9 1.5 9.7 6c2.6 3 3 7.7 3.1 11.4q0.7 39.3 0.4 78.5 0 0.8 0.9 0.7 0.1-0.1 0.4-0.3 0.1-0.1 0.2-0.3c10.1-19.6 25.8-37.6 42.3-52.8 6.4-5.9 14.6-9.5 22.5-3.8 7.3 5.3 7.9 15.6 1.5 22-19.7 19.7-37.6 40.8-52.2 64.7-6.9 11.2-15.4 28.7-15.4 42zm-249.1-196.2c-21.7 5.9-37.7 23-47.8 42.4q-3.3 6.3-8.3 21.8c-8.2 25.1-20.4 65.3-48.4 75.2q-8.3 2.9-13 3.1-23.4 0.6-41.5 15.7c-17 14.3-24.8 35.6-15.3 56.6q5.7 12.5 6.9 16.5c6.2 20-6.6 35.9-24.9 42.5q-10.7 3.8-18.3 8.9c-26 17.4-37.1 53.3-17.1 80 5.5 7.3 15.1 14.6 20.2 19.5 11.8 11.1 20 20.7 18.4 38.4-2 21.8-16.2 45.6-3.1 66.6 8.5 13.5 23.3 22.7 39 25.6q17.7 3.2 35.4 6.3 48.5 8.7 76.2 47.2c12.4 17.2 15.6 34.6 18.2 55.1q1.5 11.9 3.6 17.5c6.2 17.4 21.4 31.1 36.6 40.4q16.9 10.3 62.6 37.4 4.2 2.5 8.3 5.3 0.2 0.1 0.4 0.1 0.2 0.1 0.4 0 0.2-0.1 0.3-0.3 0.2-0.2 0.2-0.4 0.1-0.4-0.2-1.1c-17.9-43.7-44.6-83.1-76.4-117.8q-29.2-31.8-45.2-46.3-18.2-16.7-29.9-28-25.2-24.3-46.9-53.6-3.5-4.8-4.2-8.5c-1.4-7.3 3.1-13.9 9.9-16.1 6.7-2.1 13.2 0.4 17.6 5.8q16.3 20.6 22.5 27.2 24.9 26.5 51.4 51.4c17.5 16.2 35.9 34.8 50.1 50.7q34.1 38.3 60.9 86.5 0.2 0.4 0.6 0.5 0.1 0 0.3 0.1 0.1 0 0.2 0 0.1 0 0.2-0.1 0.1-0.1 0.1-0.2 0-0.1 0-0.2-1.3-3.5-2.2-7.1c-16.9-69-44.4-136.5-77.4-199.1-12.5-23.6-26.7-46.5-40.4-69.3-8.5-14.2-16.1-28.8-24-43.3-19.4-35.5-49.7-65.8-78.9-92-8.8-8-8.2-22 3.8-26.1 6.3-2.1 14.9 1.8 19.3 5.7q18.1 15.9 34.7 33.6 0.5 0.6 1.1 0 0.2-0.1 0.1-0.7-0.4-13.5-0.3-27 0.1-7.2 1.7-10.5c5.9-12.4 25.3-9.2 27.3 4.4 2.1 14.9 1.3 31 1.4 46.3q0 0.1 0.1 0.3 0.1 0.1 0.2 0.1 0.2 0.1 0.3 0 0.2-0.1 0.3-0.2c3.4-6.4 5.1-11.6 10.3-18.8 7.3-10.1 18.8-18.5 17.4-34.6q-1.5-19.3-9.7-44.9c-3.8-11.9-8.7-24.5-11.7-35.7q-8.1-30.1-11.8-61c-0.7-5.7 0-15.1 5.2-18.6 10.9-7.5 21.5-1.1 23.5 11.1 3.8 23.5 8.3 46.7 15.5 69.4q0.1 0.2 0.3 0.4 0.1 0.1 0.4 0.1 0.2 0.1 0.4 0 0.2-0.1 0.3-0.3c9.8-15.9 23.7-21 41.3-24.6 1.9-0.4 4.2-1.4 4.5-3.3 1.4-8.6-5.8-18.3-8.1-25.6-5.1-16.4-3.1-35.1 8.1-48.6q3.6-4.4 7.4-8.6c9.9-11 0.9-21.8-8.2-28.6-8.8-6.5-19.1-12.6-30-14.7q-11-2.3-22.2 0.1zm497.4 105c-10.8 28.1-19.8 56.3-24.9 86q-1.4 8.1-0.9 16.3 1 16.7 3.1 33.4c1.7 13.3 9.2 18.6 19.1 26.2 10.2 7.8 16.1 19 19.4 31.3q0.6 2.1 1.7 0.3l6.7-10.2q0.1-0.2 0.2-0.4 0.1-0.2 0.2-0.4 0-0.2 0.1-0.4 0-0.2 0-0.4 0-45.9 0-92.3 0-3.7 0.3-5.7c1.4-9.3 9.8-14.4 18.4-11.5 4.2 1.5 10.1 6.1 10.1 11q-0.1 32 0.2 64 0 4.1-0.3 8.3 0 0.2 0 0.3 0.1 0.1 0.2 0.2 0 0 0.2 0.1 0.1 0 0.2 0 0.2-0.1 0.4-0.2 0.2 0 0.4-0.2c20-21.4 44.1-38.6 69.9-52.3 18.9-10.1 34.6 13.9 14.1 25.8-42.6 24.9-79.3 58.2-108.8 97.9q-4.2 5.5-8.1 11.9c-19.4 31.4-36.2 64.5-57.5 94.6q-1.6 2.3 0.7 0.7c18.7-12.6 40.6-22.1 61.9-29.1q8.4-2.8 12.6-2.5c11 0.8 18.3 13.6 9.6 22.6q-2.2 2.4-9.8 5.5-10.5 4.4-21 8.8-23.5 9.9-52.5 29c-39 25.8-67 59.6-91.4 99.1-17.3 28.2-33.3 57.2-45.1 87.4-12.6 32.3-22.7 65-28.4 99.2q-2.7 15.8-5 31.5-0.2 1.3-0.2 1.5 0.8 2.9 2 0.2 10.4-23.1 21.3-46c17.2-36.1 39-69.9 66.3-99.4 44.7-48.3 92.8-91.1 139.4-136.5q3.9-3.9 9.1-9.5c7.4-8.1 19.1-24.7 32-16.5 11.5 7.2 6.1 18-0.6 26q-21.3 25.7-46.3 47.9-0.8 0.7-0.9 0.9-1.2 2.4 1.2 1.1 13-7.3 27.5-11.7 16.3-4.9 45.8-8.2 20.1-2.2 25.6-3.4c21.1-4.6 42-15.2 46.7-37.7q0.8-4 0.6-17.2c-0.3-21.6 1.7-41.2 14.6-59.3q8.1-11.2 11.1-14 6.6-6 11-12.3c16.5-24.1-7.9-46.5-25.9-58.6q-8-5.5-13.5-11.6c-13.4-14.9-6.4-38.4 5.3-51.9 14-16.5 30.1-26.5 26.3-50.3-3-18.8-18-32-31.2-44.3-11.9-11.1-21.3-27.1-24.1-44.4-0.6-4-9.3-2.4-11.5-2.1-13.5 1.3-24.3 1.9-35.2-1.2-25.4-7.2-32.1-30.2-37.5-52.8-5-20.9-19.4-36.8-39.5-44.7q-15.6-6.1-32.2-8.2c-18.2-2.4-37.1-3.8-55.5-2.4-8.6 0.7-22.8 7.6-22 18.7 0.3 4.6 5.3 11.1 7.9 15.2 13.5 21.7 9.3 46.2-4.3 66.6q-5.3 8-10.8 16.1c-11.5 16.9 6.9 22.7 18.9 24.9 10 1.8 19.6 4.6 28.3 10q0.3 0.2 0.5 0.2 0.3 0 0.5-0.1 0.3-0.1 0.4-0.3 0.2-0.2 0.3-0.4 1.4-6.6 3-13.3 6.2-26.2 15.8-51.4 3.2-8.4 6.4-17c3.3-8.7 7.4-15.9 17.6-14q8.1 1.5 11.7 8.8c2.4 4.9-0.1 12.1-1.9 16.8zm-141.8 630q-0.3 0.4-0.3 0.8 0 0.2 0.1 0.3 0.1 0.1 0.2 0.2 0.2 0.1 0.3 0.1 0.2 0 0.3-0.1c26.9-19.9 55.6-37.7 83.7-56.1 7.9-5.2 18.8-14.5 20.6-24.8 1.3-7.2 0.9-16.5 2.6-23.9q4.4-20 16.4-36.9 0.5-0.7 0.1-1.4-0.1-0.2-0.3-0.1-37.7 33.7-71.5 71.3c-20.7 23.1-36.5 45.6-52.2 70.6z"/>
			<path id="Layer" class="s2" d="m865.5 462.3c0 1.7-0.3 3.4-0.9 5-0.7 1.6-1.6 3.1-2.8 4.3-1.2 1.3-2.7 2.3-4.2 3-1.6 0.6-3.3 1-5.1 1l-41.8 0.6c-1.7 0-3.4-0.3-5-0.9-1.6-0.7-3.1-1.6-4.3-2.8-1.3-1.2-2.3-2.7-2.9-4.2-0.7-1.6-1.1-3.3-1.1-5.1v-1.6c-0.1-1.7 0.3-3.4 0.9-5.1 0.6-1.6 1.6-3 2.8-4.3 1.2-1.2 2.6-2.2 4.2-2.9 1.6-0.7 3.3-1 5.1-1.1l41.7-0.5c1.8-0.1 3.5 0.3 5.1 0.9 1.6 0.6 3.1 1.6 4.3 2.8 1.2 1.2 2.2 2.6 2.9 4.2 0.7 1.6 1.1 3.3 1.1 5z"/>
		</g>
		<filter id="f1">
			<feFlood flood-color="#8fdf54" flood-opacity="1" />
			<feBlend mode="normal" in2="SourceGraphic"/>
			<feComposite in2="SourceAlpha" operator="in" />
		</filter>
		<g id="Folder 1" filter="url(#f1)">
			<path id="Layer" class="s1" d="m517.5 469.2c0.5-60.4 0.9-120.7 0.7-181.1 0-13.3 8.5-30.8 15.4-42 14.6-23.9 32.5-45 52.2-64.7 6.4-6.4 5.8-16.7-1.5-22-7.9-5.7-16.1-2.1-22.5 3.8-16.5 15.2-32.2 33.2-42.3 52.8q-0.1 0.2-0.2 0.3-0.3 0.2-0.4 0.3-0.9 0.1-0.9-0.7 0.3-39.2-0.4-78.5c-0.1-3.7-0.5-8.4-3.1-11.4q-3.8-4.5-9.7-6-2.6-0.6-5.8 0.4c-12.6 4.1-10.6 10.8-11.4 22q-0.3 5.2-0.3 10.1c-0.6 73-0.1 145.9-0.8 219q0 0.1 0 0.2-0.1 0.1-0.2 0.1-0.1 0.1-0.2 0.1-0.1 0-0.2-0.1-1.2-0.7-1.3-2.1 0-0.7-0.4-1.2c-11.8-19.6-27.7-36.1-45.3-50.6-6.5-5.3-12.5-9.6-21.5-6.4-12.2 4.4-10.2 19.5-1.6 26.6 25.2 20.8 46.4 46.7 60 76.6q6.5 14.2 9.1 29.4 1.3 8.2 1.5 24.2 0.5 53.3 0.2 106.8 0 0.4-0.4 0.5l-0.4 0.1q-0.2 0.1-0.4 0-0.1 0-0.3-0.1-0.1-0.1-0.2-0.2-0.1-0.1-0.1-0.3-0.3-2.8-1.8-5.3c-9.2-15.9-21.5-30.4-33.8-43.9-2-2.2-3.2-6.2-3.8-9.6-5.1-27.8-12.9-54.7-21.5-81.5-4-12.3-14.5-21.3-27.1-11.5-7.4 5.8-2.3 19.6 0.2 27.1q6.8 20.2 12.5 41.5 0.2 0.6-0.5 0.6-0.3 0-0.9-0.5c-8.4-8.3-24.3-19.4-35.7-10.8-5.9 4.4-6 14.7-2.8 20 1.4 2.3 5.7 5.9 8.7 7.8q63.9 42 98.8 110.3 3.5 6.9 7.3 13.7c2.2 3.9 2.7 10.2 2.6 15.6q-0.9 122.7-0.2 245.3c0.1 15.8-0.2 32.5 0 48.7q0 0.8-0.6 0.3-38.9-33.9-55.5-82.3c-15.4-44.9-27.9-91.8-40.9-138q-3.7-12.9-7.1-23.2c-21.4-63.9-46.7-124.4-80.7-182.5-13.4-22.8-28.7-44.3-38.8-69q-13-32 2.8-60.7c4.4-8.1 13-17.9 18.1-24.6q8.9-11.6 10.4-25.8 0.5-5.2-1.1-19.4-1.2-9.7-1.8-19.4c-1.1-16 5.7-40.2 23.3-44.8q7.5-1.9 14.8-4.1c16.4-4.8 24.6-19.1 23.5-35.7-0.7-11.3-6.7-21.1-9.6-32-3.6-14 4.5-20.8 13-30.5q8.7-10 9.1-23.3 0.4-13.9 1.7-27.8c0.5-5.1 2.2-9 3.9-13.7 8.6-23.3 28.2-21.1 49.3-21 2.9 0 5.7-0.7 8.6-1 23.6-3.1 39.5-20.5 61.3-28.4 16.2-5.9 34.6-7.5 51.4-3.5 23.6 5.6 43.9 22.2 49.4 45.8 3.3 14.2 5.4 26.5 13.7 37.5 16.4 21.8 63.4 41.4 49.9 74.7q-1.6 3.8-6.9 11.5c-8.8 12.8-17.8 26-17.3 42.4 0.5 18.5 12.6 33.3 29.9 39.6q6.1 2.2 22.1 5.6c10.9 2.2 20.2 6.1 25.4 16.9 4.2 8.8 5 19.1 5.2 28.6 0.4 15.3 3.8 28.5 15.9 38.5 4 3.4 10.4 6.7 14.2 10.3q12.3 11.6 9.4 29.8c-2.8 17.8-9.8 33.6-17.9 49.5q-15.2 29.8-24.4 44.7c-10.8 17.5-21.4 36-32.5 52.7-15.1 22.8-33.3 46.9-46.5 65.8-47.6 67.9-82.2 145.4-95.9 227.4-0.9 5.5-1.5 12.5-2.6 18.8q-0.7 3.8-0.8 9.5c-0.2 4.4-1.2 9-1.4 13-0.4 10.6-0.7 21-1.5 31.6-0.4 5.6-3.9 7.4-6.9 11.4q-1.3 1.8-2.3 3.1-2.5 3-2.5-0.8 0-122 0-245.3c0-11.1 1.9-20.6 5.1-30.6q5.5-17 14.7-33.9 35.6-65.1 94.1-110.6c6-4.6 10.9-11 9.1-18.1-1.4-6-7-10.9-13.3-11.2-4.3-0.2-9.9 2.6-13.2 5.1q-29.6 22.3-53.9 50.5c-15.1 17.6-26.4 31.5-36.5 49.2-2.3 3.9-3.6 8.1-5.8 11.8q-1.3 2.2-1.1-0.3 1.7-25.9 1.7-52.7 0-3.5 2.7-11.5 22.3-65.5 74.7-110.4 9.3-7.9 18.6-15.7c7.4-6.1 7.1-15.9 0.4-22.4q-3.7-3.5-8.4-3.9c-7.9-0.6-20.1 9-25.5 14.3q-1.8 1.9-2.5 2.9-2.3 3.8-2.3-0.7 0.1-22.6 0-47.1c-0.1-20-29.1-22.6-29.2-2.5q-0.1 37.8 0.2 75.8 0 0.3 0 0.6-0.1 0.3-0.2 0.6-0.1 0.3-0.2 0.6-0.1 0.3-0.3 0.5c-10.6 14.3-21.3 29.4-27.9 45.9q-0.1 0.2-0.2 0.3-0.2 0.1-0.4 0.2-0.1 0.1-0.3 0-0.2 0-0.4-0.1-0.7-0.5-0.5-1.6 0.7-5.3 0.7-10.6z"/>
			<path id="Layer" class="s1" d="m291.3 91.8c10.9 2.1 21.2 8.2 30 14.7 9.1 6.8 18.1 17.6 8.2 28.6q-3.8 4.2-7.4 8.6c-11.2 13.5-13.2 32.2-8.1 48.6 2.3 7.3 9.5 17 8.1 25.6-0.3 1.9-2.6 2.9-4.5 3.3-17.6 3.6-31.5 8.7-41.3 24.6q-0.1 0.2-0.3 0.3-0.2 0.1-0.4 0-0.3 0-0.4-0.1-0.2-0.2-0.3-0.4c-7.2-22.7-11.7-45.9-15.5-69.4-2-12.2-12.6-18.6-23.5-11.1-5.2 3.5-5.9 12.9-5.2 18.6q3.7 30.9 11.8 61c3 11.2 7.9 23.8 11.7 35.7q8.2 25.6 9.7 44.9c1.4 16.1-10.1 24.5-17.4 34.6-5.2 7.2-6.9 12.4-10.3 18.8q-0.1 0.1-0.3 0.2-0.1 0.1-0.3 0-0.1 0-0.2-0.1-0.1-0.2-0.1-0.3c-0.1-15.3 0.7-31.4-1.4-46.3-2-13.6-21.4-16.8-27.3-4.4q-1.6 3.3-1.7 10.5-0.1 13.5 0.3 27 0.1 0.6-0.1 0.7-0.6 0.6-1.1 0-16.6-17.7-34.7-33.6c-4.4-3.9-13-7.8-19.3-5.7-12 4.1-12.6 18.1-3.8 26.1 29.2 26.2 59.5 56.5 78.9 92 7.9 14.5 15.5 29.1 24 43.3 13.7 22.8 27.9 45.7 40.4 69.3 33 62.6 60.5 130.1 77.4 199.1q0.9 3.6 2.2 7.1 0 0.1 0 0.2 0 0.1-0.1 0.2-0.1 0.1-0.2 0.1-0.1 0-0.2 0-0.2-0.1-0.3-0.1-0.4-0.1-0.6-0.5-26.8-48.2-60.9-86.5c-14.2-15.9-32.6-34.5-50.1-50.7q-26.5-24.9-51.4-51.4-6.2-6.6-22.5-27.2c-4.4-5.4-10.9-7.9-17.6-5.8-6.8 2.2-11.3 8.8-9.9 16.1q0.7 3.7 4.2 8.5 21.7 29.3 46.9 53.6 11.7 11.3 29.9 28 16 14.5 45.2 46.3c31.8 34.7 58.5 74.1 76.4 117.8q0.3 0.7 0.2 1.1 0 0.2-0.2 0.4-0.1 0.2-0.3 0.3-0.2 0.1-0.4 0-0.2 0-0.4-0.1-4.1-2.8-8.3-5.3-45.7-27.1-62.6-37.4c-15.2-9.3-30.4-23-36.6-40.4q-2.1-5.6-3.6-17.5c-2.6-20.5-5.8-37.9-18.2-55.1q-27.7-38.5-76.2-47.2-17.7-3.1-35.4-6.3c-15.7-2.9-30.5-12.1-39-25.6-13.1-21 1.1-44.8 3.1-66.6 1.6-17.7-6.6-27.3-18.4-38.4-5.1-4.9-14.7-12.2-20.2-19.5-20-26.7-8.9-62.6 17.1-80q7.6-5.1 18.3-8.9c18.3-6.6 31.1-22.5 24.9-42.5q-1.2-4-6.9-16.5c-9.5-21-1.7-42.3 15.3-56.6q18.1-15.1 41.5-15.7 4.7-0.2 13-3.1c28-9.9 40.2-50.1 48.4-75.2q5-15.5 8.3-21.8c10.1-19.4 26.1-36.5 47.8-42.4 2.7 0.1 4.7 0.2 7.8-0.4q3.2-0.6 6.3 0c3.2 0.6 5.3 0.6 8.1 0.3z"/>
			<path id="Layer" fill-rule="evenodd" class="s1" d="m741.6 282.9c5.1-29.7 14.1-57.9 24.9-86 1.8-4.7 4.3-11.9 1.9-16.8q-3.6-7.3-11.7-8.8c-10.2-1.9-14.3 5.3-17.6 14q-3.2 8.6-6.4 17-9.6 25.2-15.8 51.4-1.6 6.7-3 13.3-0.1 0.2-0.3 0.4-0.1 0.2-0.4 0.3-0.2 0.1-0.5 0.1-0.2 0-0.5-0.2c-8.7-5.4-18.3-8.2-28.3-10-12-2.2-30.4-8-18.9-24.9q5.5-8.1 10.8-16.1c13.6-20.4 17.8-44.9 4.3-66.6-2.6-4.1-7.6-10.6-7.9-15.2-0.8-11.1 13.4-18 22-18.7 18.4-1.4 37.3 0 55.5 2.4q16.6 2.1 32.2 8.2c20.1 7.9 34.5 23.8 39.5 44.7 5.4 22.6 12.1 45.6 37.5 52.8 10.9 3.1 21.7 2.5 35.2 1.2 2.2-0.3 10.9-1.9 11.5 2.1 2.8 17.3 12.2 33.3 24.1 44.4 13.2 12.3 28.2 25.5 31.2 44.3 3.8 23.8-12.3 33.8-26.3 50.3-11.7 13.5-18.7 37-5.3 51.9q5.5 6.1 13.5 11.6c18 12.1 42.4 34.5 25.9 58.6q-4.4 6.3-11 12.3-3 2.8-11.1 14c-12.9 18.1-14.9 37.7-14.6 59.3q0.2 13.2-0.6 17.2c-4.7 22.5-25.6 33.1-46.7 37.7q-5.5 1.2-25.6 3.4-29.5 3.3-45.8 8.2-14.5 4.4-27.5 11.7-2.4 1.3-1.2-1.1 0.1-0.2 0.9-0.9 25-22.2 46.3-47.9c6.7-8 12.1-18.8 0.6-26-12.9-8.2-24.6 8.4-32 16.5q-5.2 5.6-9.1 9.5c-46.6 45.4-94.7 88.2-139.4 136.5-27.3 29.5-49.1 63.3-66.3 99.4q-10.9 22.9-21.3 46-1.2 2.7-2-0.2 0-0.2 0.2-1.5 2.3-15.7 5-31.5c5.7-34.2 15.8-66.9 28.4-99.2 11.8-30.2 27.8-59.2 45.1-87.4 24.4-39.5 52.4-73.3 91.4-99.1q29-19.1 52.5-29 10.5-4.4 21-8.8 7.6-3.1 9.8-5.5c8.7-9 1.4-21.8-9.6-22.6q-4.2-0.3-12.6 2.5c-21.3 7-43.2 16.5-61.9 29.1q-2.3 1.6-0.7-0.7c21.3-30.1 38.1-63.2 57.5-94.6q3.9-6.4 8.1-11.9c29.5-39.7 66.2-73 108.8-97.9 20.5-11.9 4.8-35.9-14.1-25.8-25.8 13.7-49.9 30.9-69.9 52.3q-0.2 0.2-0.4 0.2-0.2 0.1-0.4 0.2-0.1 0-0.2 0-0.2-0.1-0.2-0.1-0.1-0.1-0.2-0.2 0-0.1 0-0.3 0.3-4.2 0.3-8.3-0.3-32-0.2-64c0-4.9-5.9-9.5-10.1-11-8.6-2.9-17 2.2-18.4 11.5q-0.3 2-0.3 5.7 0 46.4 0 92.3 0 0.2 0 0.4-0.1 0.2-0.1 0.4-0.1 0.2-0.2 0.4-0.1 0.2-0.2 0.4l-6.7 10.2q-1.1 1.8-1.7-0.3c-3.3-12.3-9.2-23.5-19.4-31.3-9.9-7.6-17.4-12.9-19.1-26.2q-2.1-16.7-3.1-33.4-0.5-8.2 0.9-16.3zm123.9 177.7c0-1.7-0.4-3.4-1.1-5-0.7-1.6-1.7-3-2.9-4.2-1.2-1.2-2.7-2.2-4.3-2.8-1.6-0.6-3.3-1-5.1-0.9l-41.7 0.5c-1.8 0.1-3.5 0.4-5.1 1.1-1.6 0.7-3 1.7-4.2 2.9-1.2 1.3-2.2 2.7-2.8 4.3-0.6 1.7-1 3.4-0.9 5.1v1.6c0 1.8 0.4 3.5 1.1 5.1 0.6 1.5 1.6 3 2.9 4.2 1.2 1.2 2.7 2.1 4.3 2.8 1.6 0.6 3.3 0.9 5 0.9l41.8-0.6c1.8 0 3.5-0.4 5.1-1 1.5-0.7 3-1.7 4.2-3 1.2-1.2 2.1-2.7 2.8-4.3 0.6-1.6 0.9-3.3 0.9-5z"/>
		</g>
	</g>
	<text id="lettuce" style="transform: matrix(3.241,0,0,3.241,161.006,1171.176)" >
		<tspan x="0" y="0" class="t3">l</tspan><tspan  y="0" class="t3">e</tspan><tspan  y="0" class="t3">t</tspan><tspan  y="0" class="t3">t</tspan><tspan  y="0" class="t3">u</tspan><tspan  y="0" class="t3">c</tspan><tspan  y="0" class="t3">e
</tspan>
	</text>
</svg>