<svg version="1.2" xmlns="http://www.w3.org/2000/svg" viewBox="0 0 868 1053" width="868" height="1053">
	<title>OIG</title>
	<style>
		tspan { white-space:pre } 
		.s0 { fill: none;stroke: #4d6a37;stroke-width: 2 } 
		.s1 { fill: #7fb954 } 
		.s2 { fill: #1a1a19 } 
		.t3 { font-size: 60px;fill: #396c13;font-weight: 400;font-family: "UbuntuMono-Regular", "Ubuntu Mono" } 
	</style>
	<g id="Folder 3">
		<filter id="f0">
			<feFlood flood-color="#396c13" flood-opacity="1" />
			<feBlend mode="normal" in2="SourceGraphic"/>
			<feComposite in2="SourceAlpha" operator="in" />
		</filter>
		<g id="Folder 2" filter="url(#f0)">
			<path id="Layer" fill-rule="evenodd" class="s0" d="m539.3 713.6q-0.2 0.4-0.2 0.8 0 0.1 0 0.2 0.1 0.1 0.2 0.2 0.1 0.1 0.3 0.1 0.1-0.1 0.2-0.1c23.2-17.2 48-32.6 72.3-48.5 6.8-4.5 16.2-12.4 17.8-21.3 1.1-6.3 0.8-14.3 2.2-20.7q3.8-17.3 14.2-31.9 0.4-0.6 0.1-1.2-0.1-0.2-0.3 0-32.5 29.1-61.7 61.5c-17.9 20-31.6 39.4-45.1 60.9z"/>
			<path id="Layer" fill-rule="evenodd" class="s0" d="m447.4 248.5c0.1 52.1-0.2 104.2-0.6 156.3q-0.1 4.6-0.7 9.2-0.1 0.9 0.5 1.4 0.1 0 0.3 0.1 0.2 0 0.3 0 0.2-0.1 0.3-0.2 0.1-0.1 0.2-0.3c5.7-14.2 14.9-27.3 24.1-39.6q0.1-0.2 0.2-0.4 0.2-0.3 0.3-0.5 0-0.3 0.1-0.6 0-0.2 0-0.5-0.3-32.8-0.2-65.4c0.1-17.4 25.2-15.1 25.2 2.1q0.1 21.2 0.1 40.7-0.1 3.8 1.9 0.6 0.6-0.9 2.2-2.5c4.7-4.6 15.2-12.9 22-12.3q4 0.3 7.2 3.3c5.8 5.6 6.1 14.1-0.3 19.4q-8.1 6.7-16 13.5-45.3 38.8-64.6 95.3-2.3 6.9-2.3 10 0 23.1-1.5 45.5-0.1 2.1 1 0.2c1.9-3.2 3-6.8 5-10.2 8.7-15.2 18.4-27.2 31.5-42.4q21-24.4 46.6-43.7c2.8-2.1 7.6-4.5 11.4-4.4 5.4 0.3 10.2 4.5 11.5 9.7 1.4 6.1-2.8 11.6-7.9 15.6q-50.6 39.3-81.2 95.6-8 14.5-12.7 29.2c-2.8 8.6-4.4 16.8-4.4 26.4q-0.1 106.5-0.1 211.8 0 3.3 2.2 0.7 0.9-1.1 2-2.6c2.6-3.6 5.6-5.1 5.9-10 0.7-9.1 1-18 1.4-27.2 0.1-3.5 1-7.4 1.1-11.3q0.2-4.9 0.7-8.1c1-5.4 1.5-11.5 2.3-16.2 11.8-70.9 41.7-137.8 82.8-196.4 11.4-16.4 27.1-37.2 40.1-56.8 9.6-14.5 18.8-30.4 28.1-45.5q7.9-12.9 21.1-38.6c6.9-13.7 13-27.4 15.4-42.7q2.5-15.8-8.1-25.8c-3.3-3.1-8.8-5.9-12.3-8.8-10.4-8.7-13.4-20.1-13.7-33.3-0.1-8.2-0.9-17.1-4.5-24.7-4.5-9.3-12.5-12.7-21.9-14.6q-13.9-2.9-19.1-4.8c-14.9-5.4-25.4-18.3-25.8-34.2-0.4-14.2 7.3-25.6 14.9-36.6q4.6-6.7 6-10c11.6-28.7-29-45.6-43.1-64.4-7.2-9.5-9-20.1-11.8-32.4-4.8-20.4-22.3-34.7-42.7-39.6-14.5-3.4-30.4-2-44.4 3.1-18.8 6.8-32.5 21.8-52.9 24.4-2.5 0.4-4.9 0.9-7.4 0.9-18.2-0.1-35.1-1.9-42.5 18.2-1.5 4-3 7.4-3.4 11.8q-1.2 12-1.5 24-0.4 11.5-7.9 20.1c-7.3 8.3-14.3 14.2-11.2 26.3 2.5 9.5 7.7 17.9 8.3 27.7 0.9 14.3-6.1 26.6-20.3 30.8q-6.3 1.9-12.8 3.5c-15.2 4-21 24.9-20.1 38.7q0.6 8.4 1.5 16.8 1.4 12.2 1 16.7-1.3 12.3-8.9 22.3c-4.4 5.8-11.9 14.2-15.7 21.2q-13.7 24.8-2.4 52.5c8.7 21.3 21.9 39.8 33.5 59.5 29.3 50.2 51.2 102.4 69.6 157.6q3 8.9 6.2 20c11.2 39.9 22 80.4 35.3 119.2q14.3 41.8 47.9 71 0.5 0.4 0.5-0.2c-0.1-14.1 0.1-28.4 0.1-42.1q-0.7-105.9 0.1-211.8c0.1-4.6-0.3-10.1-2.2-13.5q-3.3-5.8-6.4-11.8-30.1-59-85.3-95.2c-2.5-1.6-6.3-4.8-7.5-6.8-2.7-4.5-2.6-13.4 2.5-17.2 9.8-7.4 23.5 2.2 30.8 9.3q0.5 0.5 0.8 0.5 0.6 0 0.4-0.6-4.9-18.3-10.8-35.8c-2.2-6.5-6.6-18.4-0.1-23.4 10.8-8.4 19.9-0.7 23.3 9.9 7.5 23.2 14.2 46.4 18.6 70.4 0.5 3 1.5 6.4 3.3 8.3 10.6 11.7 21.2 24.1 29.2 37.9q1.2 2.1 1.5 4.6 0 0.1 0.1 0.2 0.1 0.1 0.2 0.2 0.1 0.1 0.3 0.1 0.1 0 0.2 0l0.4-0.1q0.4-0.1 0.4-0.5 0.2-46.1-0.2-92.2-0.2-13.8-1.3-20.8-2.3-13.2-7.8-25.4c-11.8-25.8-30.1-48.2-51.9-66.2-7.4-6.1-9.1-19.2 1.4-22.9 7.8-2.8 13 0.9 18.6 5.5 15.2 12.5 28.9 26.8 39.1 43.7q0.3 0.4 0.3 1 0.1 1.2 1.2 1.9 0.1 0 0.2 0 0.1 0 0.1 0 0.1-0.1 0.2-0.2 0 0 0-0.1c0.6-63.1 0.2-126.1 0.6-189.1q0.1-4.3 0.4-8.7c0.6-9.7-1.1-15.5 9.8-19q2.7-0.9 5-0.4 5.1 1.3 8.4 5.2c2.2 2.6 2.6 6.7 2.6 9.9q0.6 33.9 0.4 67.7 0 0.8 0.7 0.6 0.1 0 0.4-0.2 0.1-0.1 0.2-0.3c8.7-16.9 22.2-32.4 36.5-45.6 5.6-5.1 12.6-8.2 19.5-3.2 6.3 4.5 6.8 13.4 1.2 19-17 17-32.5 35.2-45.1 55.8-5.9 9.7-13.2 24.8-13.2 36.3z"/>
			<path id="Layer" fill-rule="evenodd" class="s0" d="m232.3 79c-18.8 5.2-32.6 19.9-41.3 36.7q-2.8 5.4-7.2 18.8c-7.1 21.7-17.6 56.4-41.7 64.9q-7.2 2.6-11.3 2.7-20.2 0.5-35.8 13.6c-14.7 12.3-21.4 30.7-13.2 48.9q4.9 10.8 5.9 14.1c5.4 17.3-5.7 31.1-21.4 36.7q-9.3 3.3-15.8 7.7c-22.5 15.1-32.1 46.1-14.8 69.1 4.7 6.3 13 12.7 17.4 16.8 10.2 9.7 17.3 18 15.9 33.2-1.7 18.9-14 39.4-2.7 57.5 7.4 11.7 20.1 19.7 33.7 22.1q15.3 2.8 30.6 5.5 41.8 7.4 65.8 40.7c10.7 14.9 13.5 29.9 15.7 47.6q1.3 10.3 3 15.1c5.5 15 18.6 26.9 31.7 34.9q14.6 8.8 54 32.3 3.7 2.2 7.2 4.5 0.1 0.1 0.3 0.2 0.2 0 0.4-0.1 0.2-0.1 0.3-0.2 0.1-0.2 0.1-0.4 0.1-0.3-0.2-1c-15.4-37.6-38.5-71.7-65.9-101.6q-25.2-27.5-39-40-15.8-14.4-25.8-24.2-21.8-21-40.5-46.3-3.1-4.1-3.7-7.3c-1.2-6.3 2.7-12 8.6-13.9 5.8-1.8 11.4 0.3 15.1 5q14.2 17.8 19.5 23.5 21.5 22.9 44.4 44.3c15 14.1 30.9 30.1 43.2 43.9q29.5 33 52.6 74.7 0.2 0.3 0.5 0.3 0.1 0.1 0.3 0.1 0 0.1 0.1 0.1 0.1-0.1 0.2-0.1 0.1-0.1 0.1-0.2 0-0.1 0-0.2-1.1-3-1.9-6.2c-14.5-59.5-38.3-117.7-66.8-171.8-10.8-20.4-23-40.1-34.9-59.9-7.3-12.2-13.9-24.8-20.7-37.3-16.7-30.7-43-56.8-68.1-79.5-7.6-6.9-7.1-19 3.2-22.5 5.5-1.8 12.9 1.6 16.7 4.9q15.6 13.7 30 29 0.4 0.5 0.9 0.1 0.2-0.2 0.1-0.7-0.4-11.7-0.2-23.3 0.1-6.2 1.4-9.1c5.1-10.7 21.9-7.9 23.6 3.8 1.8 13 1.1 26.8 1.2 40q0 0.1 0.1 0.2 0.1 0.2 0.2 0.2 0.1 0 0.2 0 0.2-0.1 0.2-0.2c3-5.5 4.5-10 9-16.3 6.3-8.6 16.2-15.9 15-29.8q-1.3-16.7-8.4-38.8c-3.3-10.3-7.5-21.1-10.1-30.8q-7-26-10.2-52.7c-0.6-4.9 0-13 4.5-16 9.5-6.5 18.6-0.9 20.3 9.6 3.3 20.2 7.2 40.3 13.4 59.9q0.1 0.2 0.2 0.3 0.2 0.1 0.4 0.1 0.2 0.1 0.3 0 0.2-0.1 0.3-0.3c8.4-13.7 20.5-18.1 35.7-21.2 1.6-0.3 3.6-1.2 3.9-2.8 1.1-7.4-5.1-15.8-7.1-22.2-4.3-14.1-2.7-30.3 7-41.9q3.2-3.8 6.5-7.4c8.5-9.5 0.7-18.9-7.1-24.7-7.6-5.6-16.5-10.9-25.9-12.7"/>
			<path id="Layer" fill-rule="evenodd" class="s0" d="m661.7 169.8c-9.3 24.2-17 48.6-21.5 74.2q-1.2 7-0.7 14.1 0.9 14.4 2.6 28.8c1.5 11.5 8 16.1 16.5 22.6 8.8 6.8 13.9 16.4 16.8 27.1q0.5 1.7 1.5 0.2l5.8-8.8q0.1-0.2 0.1-0.4 0.1-0.1 0.2-0.3 0-0.2 0-0.3 0.1-0.2 0.1-0.4-0.1-39.7 0-79.6 0-3.3 0.2-5c1.2-8 8.5-12.4 15.9-9.9 3.7 1.3 8.8 5.3 8.7 9.5q-0.1 27.6 0.2 55.2 0 3.6-0.3 7.2 0 0.1 0 0.2 0.1 0.1 0.2 0.2 0.1 0.1 0.2 0.1 0.1 0 0.2 0 0.1-0.1 0.3-0.1 0.2-0.1 0.4-0.2c17.2-18.5 38-33.4 60.3-45.2 16.3-8.7 29.9 12 12.2 22.3-36.8 21.5-68.5 50.3-94 84.5q-3.6 4.8-7 10.3c-16.7 27.1-31.2 55.7-49.6 81.7q-1.4 2 0.6 0.6c16.2-10.9 35-19.1 53.5-25.2q7.2-2.4 10.8-2.1c9.5 0.7 15.8 11.7 8.3 19.5q-1.9 2-8.4 4.8-9.1 3.7-18.2 7.6-20.3 8.5-45.3 25c-33.7 22.3-57.8 51.4-78.9 85.6-15 24.3-28.8 49.3-38.9 75.4-10.9 27.9-19.6 56.1-24.6 85.7q-2.3 13.6-4.3 27.2-0.2 1.1-0.2 1.2 0.7 2.5 1.8 0.2 9-20 18.3-39.7c14.9-31.2 33.7-60.4 57.3-85.8 38.6-41.7 80.1-78.7 120.3-117.9q3.4-3.3 7.9-8.2c6.4-7 16.5-21.3 27.6-14.2 9.9 6.2 5.3 15.5-0.5 22.5q-18.4 22.1-39.9 41.3-0.8 0.6-0.8 0.8-1.1 2 1 0.9 11.2-6.3 23.8-10.1 14-4.2 39.5-7.1 17.4-1.9 22.1-2.9c18.2-4 36.3-13.1 40.3-32.6q0.7-3.4 0.5-14.8c-0.3-18.7 1.5-35.6 12.7-51.2q6.9-9.7 9.5-12.1 5.7-5.2 9.5-10.6c14.2-20.8-6.8-40.2-22.3-50.6q-7-4.8-11.7-10c-11.6-12.9-5.5-33.1 4.5-44.8 12.2-14.3 26.1-22.9 22.8-43.4-2.6-16.3-15.5-27.7-27-38.3-10.2-9.6-18.3-23.4-20.8-38.4-0.5-3.4-8-2-9.9-1.8-11.7 1.2-21 1.6-30.4-1-22-6.2-27.7-26-32.4-45.6-4.3-18-16.7-31.8-34.1-38.6q-13.4-5.2-27.8-7.1c-15.7-2-32-3.3-47.9-2-7.4 0.6-19.7 6.5-19 16.1 0.3 4 4.6 9.6 6.8 13.1 11.7 18.8 8 39.9-3.7 57.5q-4.6 7-9.3 13.9c-9.9 14.7 5.9 19.6 16.3 21.5 8.6 1.6 17 4 24.5 8.7q0.2 0.1 0.4 0.1 0.2 0.1 0.4 0 0.2-0.1 0.4-0.3 0.1-0.2 0.2-0.4 1.2-5.6 2.6-11.4 5.4-22.6 13.6-44.4 2.8-7.3 5.6-14.6c2.9-7.6 6.4-13.8 15.1-12.2q7.1 1.3 10.2 7.7c2 4.2-0.1 10.3-1.7 14.5z"/>
			<path id="Layer" class="s1" d="m539.3 713.6c13.5-21.5 27.2-40.9 45.1-60.9q29.2-32.4 61.7-61.5 0.2-0.2 0.3 0 0.3 0.6-0.1 1.2-10.4 14.6-14.2 31.9c-1.4 6.4-1.1 14.4-2.2 20.7-1.6 8.9-11 16.8-17.8 21.3-24.3 15.9-49.1 31.3-72.3 48.5q-0.1 0-0.2 0.1-0.2 0-0.3-0.1-0.1-0.1-0.2-0.2 0-0.1 0-0.2 0-0.4 0.2-0.8z"/>
			<path id="Layer" fill-rule="evenodd" class="s0" d="m747.2 397.4c0-1.4-0.3-2.9-0.9-4.3-0.6-1.4-1.5-2.6-2.5-3.6-1.1-1.1-2.4-1.9-3.8-2.5-1.4-0.5-2.8-0.8-4.3-0.8l-36.1 0.5c-1.5 0.1-3 0.4-4.3 1-1.4 0.6-2.7 1.4-3.7 2.5-1 1.1-1.9 2.3-2.4 3.7-0.6 1.4-0.8 2.9-0.8 4.4v1.4c0 1.5 0.3 2.9 0.9 4.3 0.6 1.4 1.5 2.6 2.5 3.7 1.1 1 2.4 1.8 3.8 2.4 1.4 0.5 2.8 0.8 4.3 0.8l36.1-0.5c1.5 0 3-0.4 4.3-0.9 1.4-0.6 2.7-1.5 3.7-2.6 1-1 1.9-2.3 2.4-3.7 0.6-1.4 0.8-2.9 0.8-4.3z"/>
			<path id="Layer" fill-rule="evenodd" class="s2" d="m556.7 93.5q18-18.4 44.2-19.3c10.3-0.4 19.4-1.2 30.6-0.4q6 0.4 27.5 3.2 19 2.4 38 12.8c15.6 8.5 29.1 23 34.9 40.1q1.9 5.4 5.8 22 0.4 1.7 2.2 5.6c4.2 8.8 12.2 11.8 21.6 11.1 15.3-1.2 40.2-7 45 14.4 1.6 7.2 2.7 14.1 6.3 20.9q2.4 4.5 8.7 10.9c9.9 10.2 19.6 18.9 27.1 32 13.9 24 10.3 51.1-7.1 72.1q-3 3.6-13.2 14.1c-4.3 4.4-6.2 10.4-0.1 14.8 17.9 12.9 34.1 26.8 38.7 49.4 3.5 16.9-3.7 36.4-15 48.3-9.4 9.9-18.7 19.8-20.3 32.9-0.6 5.4 0.3 12.4 0.5 18.5 0.5 19.5-6.3 38.5-20.4 51.8-20.4 19.3-50.1 21.5-77.6 24.6-31.7 3.5-66.3 16.7-74.4 51.5-1.1 4.9-1.4 11.1-1.8 16.8-1.8 24.2-19.6 39.7-39.1 52.1q-18.2 11.7-36.5 23.5-28.3 18.2-49.5 38.8c-17.4 17.1-34.1 37.9-49.8 59.5-8.9 12.2-19.5 24-34.4 28.8-22.5 7.2-42.2-2-57-19q-16.1-18.6-32-37.3c-22.9-27.1-48.7-50.8-78.3-70.3-14.5-9.5-34.4-19.9-46.5-27.4-20.7-12.7-45.4-36.4-48.2-62.1q-0.7-6.8-1.5-13.6c-3.3-29.9-20.7-49.5-48.7-58.5-11.7-3.8-27.3-5.6-40.8-7.9q-28.4-4.7-45.9-26c-19.1-23.2-16.8-48.4-8.2-74.9q1.1-3.5 1-5.7c-0.6-8.6-11.5-16.6-18.4-22.1-6-4.7-10.6-12.3-14.5-18.9-20.9-36.2-6-79.8 28.2-100.8 6.5-4 14.3-7.1 21.8-9.9q0.6-0.2 1-0.6 0.5-0.5 0.7-1 0.3-0.6 0.3-1.2 0-0.6-0.3-1.2-3.8-9.2-7.3-18.9c-6-16.5-1.3-35.7 7.2-50.8 10.9-19.1 26.6-32.4 48.3-37.3 10.3-2.3 22-0.6 29.4-9.7 12.3-15.2 16.3-35.9 22.9-53.9q10.2-27.3 32.1-45.4c28.6-23.5 67.5-24.5 97-1.8q0.1 0.1 0.2 0.2 0.2 0.1 0.3 0.1 0.1 0.1 0.3 0.1 0.1 0 0.3 0 1.9-0.2 2-2.2 0-0.1 0-0.2 0-0.2 0-0.3 0.1-0.1 0.1-0.2 0.1-0.1 0.1-0.2c1.7-3.4 3.2-7.2 5-10.1q12.6-20.7 36.2-24.8c11.4-1.9 23 0.4 34.5-2.4q4.4-1.1 10-4.3c11.1-6.4 21.3-13.5 34.1-17.8 43.7-14.7 101.1-3.6 119.3 44.5 2.7 7.2 3.8 16.5 7.1 24.2q4.9 11.1 14.5 18.9 0.2 0.1 0.4 0.2 0.3 0.1 0.5 0.1 0.3 0 0.5-0.1 0.3-0.1 0.4-0.3zm-109.3 155c0.1 52.1-0.2 104.2-0.6 156.3q-0.1 4.6-0.7 9.2-0.1 0.9 0.5 1.4 0.1 0 0.3 0.1 0.2 0 0.3 0 0.2-0.1 0.3-0.2 0.1-0.1 0.2-0.3c5.7-14.2 14.9-27.3 24.1-39.6q0.1-0.2 0.2-0.4 0.2-0.3 0.3-0.5 0-0.3 0.1-0.6 0-0.2 0-0.5-0.3-32.8-0.2-65.4c0.1-17.4 25.2-15.1 25.2 2.1q0.1 21.2 0.1 40.7-0.1 3.8 1.9 0.6 0.6-0.9 2.2-2.5c4.7-4.6 15.2-12.9 22-12.3q4 0.3 7.2 3.3c5.8 5.6 6.1 14.1-0.3 19.4q-8.1 6.7-16 13.5-45.3 38.8-64.6 95.3-2.3 6.9-2.3 10 0 23.1-1.5 45.5-0.1 2.1 1 0.2c1.9-3.2 3-6.8 5-10.2 8.7-15.2 18.4-27.2 31.5-42.4q21-24.4 46.6-43.7c2.8-2.1 7.6-4.5 11.4-4.4 5.4 0.3 10.2 4.5 11.5 9.7 1.4 6.1-2.8 11.6-7.9 15.6q-50.6 39.3-81.2 95.6-8 14.5-12.7 29.2c-2.8 8.6-4.4 16.8-4.4 26.4q-0.1 106.5-0.1 211.8 0 3.3 2.2 0.7 0.9-1.1 2-2.6c2.6-3.6 5.6-5.1 5.9-10 0.7-9.1 1-18 1.4-27.2 0.1-3.5 1-7.4 1.1-11.3q0.2-4.9 0.7-8.1c1-5.4 1.5-11.5 2.3-16.2 11.8-70.9 41.7-137.8 82.8-196.4 11.4-16.4 27.1-37.2 40.1-56.8 9.6-14.5 18.8-30.4 28.1-45.5q7.9-12.9 21.1-38.6c6.9-13.7 13-27.4 15.4-42.7q2.5-15.8-8.1-25.8c-3.3-3.1-8.8-5.9-12.3-8.8-10.4-8.7-13.4-20.1-13.7-33.3-0.1-8.2-0.9-17.1-4.5-24.7-4.5-9.3-12.5-12.7-21.9-14.6q-13.9-2.9-19.1-4.8c-14.9-5.4-25.4-18.3-25.8-34.2-0.4-14.2 7.3-25.6 14.9-36.6q4.6-6.7 6-10c11.6-28.7-29-45.6-43.1-64.4-7.2-9.5-9-20.1-11.8-32.4-4.8-20.4-22.3-34.7-42.7-39.6-14.5-3.4-30.4-2-44.4 3.1-18.8 6.8-32.5 21.8-52.9 24.4-2.5 0.4-4.9 0.9-7.4 0.9-18.2-0.1-35.1-1.9-42.5 18.2-1.5 4-3 7.4-3.4 11.8q-1.2 12-1.5 24-0.4 11.5-7.9 20.1c-7.3 8.3-14.3 14.2-11.2 26.3 2.5 9.5 7.7 17.9 8.3 27.7 0.9 14.3-6.1 26.6-20.3 30.8q-6.3 1.9-12.8 3.5c-15.2 4-21 24.9-20.1 38.7q0.6 8.4 1.5 16.8 1.4 12.2 1 16.7-1.3 12.3-8.9 22.3c-4.4 5.8-11.9 14.2-15.7 21.2q-13.7 24.8-2.4 52.5c8.7 21.3 21.9 39.8 33.5 59.5 29.3 50.2 51.2 102.4 69.6 157.6q3 8.9 6.2 20c11.2 39.9 22 80.4 35.3 119.2q14.3 41.8 47.9 71 0.5 0.4 0.5-0.2c-0.1-14.1 0.1-28.4 0.1-42.1q-0.7-105.9 0.1-211.8c0.1-4.6-0.3-10.1-2.2-13.5q-3.3-5.8-6.4-11.8-30.1-59-85.3-95.2c-2.5-1.6-6.3-4.8-7.5-6.8-2.7-4.5-2.6-13.4 2.5-17.2 9.8-7.4 23.5 2.2 30.8 9.3q0.5 0.5 0.8 0.5 0.6 0 0.4-0.6-4.9-18.3-10.8-35.8c-2.2-6.5-6.6-18.4-0.1-23.4 10.8-8.4 19.9-0.7 23.3 9.9 7.5 23.2 14.2 46.4 18.6 70.4 0.5 3 1.5 6.4 3.3 8.3 10.6 11.7 21.2 24.1 29.2 37.9q1.2 2.1 1.5 4.6 0 0.1 0.1 0.2 0.1 0.1 0.2 0.2 0.1 0.1 0.3 0.1 0.1 0 0.2 0l0.4-0.1q0.4-0.1 0.4-0.5 0.2-46.1-0.2-92.2-0.2-13.8-1.3-20.8-2.3-13.2-7.8-25.4c-11.8-25.8-30.1-48.2-51.9-66.2-7.4-6.1-9.1-19.2 1.4-22.9 7.8-2.8 13 0.9 18.6 5.5 15.2 12.5 28.9 26.8 39.1 43.7q0.3 0.4 0.3 1 0.1 1.2 1.2 1.9 0.1 0 0.2 0 0.1 0 0.1 0 0.1-0.1 0.2-0.2 0 0 0-0.1c0.6-63.1 0.2-126.1 0.6-189.1q0.1-4.3 0.4-8.7c0.6-9.7-1.1-15.5 9.8-19q2.7-0.9 5-0.4 5.1 1.3 8.4 5.2c2.2 2.6 2.6 6.7 2.6 9.9q0.6 33.9 0.4 67.7 0 0.8 0.7 0.6 0.1 0 0.4-0.2 0.1-0.1 0.2-0.3c8.7-16.9 22.2-32.4 36.5-45.6 5.6-5.1 12.6-8.2 19.5-3.2 6.3 4.5 6.8 13.4 1.2 19-17 17-32.5 35.2-45.1 55.8-5.9 9.7-13.2 24.8-13.2 36.3zm-215.1-169.5c-18.8 5.2-32.6 19.9-41.3 36.7q-2.8 5.4-7.2 18.8c-7.1 21.7-17.6 56.4-41.7 64.9q-7.2 2.6-11.3 2.7-20.2 0.5-35.8 13.6c-14.7 12.3-21.4 30.7-13.2 48.9q4.9 10.8 5.9 14.1c5.4 17.3-5.7 31.1-21.4 36.7q-9.3 3.3-15.8 7.7c-22.5 15.1-32.1 46.1-14.8 69.1 4.7 6.3 13 12.7 17.4 16.8 10.2 9.7 17.3 18 15.9 33.2-1.7 18.9-14 39.4-2.7 57.5 7.4 11.7 20.1 19.7 33.7 22.1q15.3 2.8 30.6 5.5 41.8 7.4 65.8 40.7c10.7 14.9 13.5 29.9 15.7 47.6q1.3 10.3 3 15.1c5.5 15 18.6 26.9 31.7 34.9q14.6 8.8 54 32.3 3.7 2.2 7.2 4.5 0.1 0.1 0.3 0.2 0.2 0 0.4-0.1 0.2-0.1 0.3-0.2 0.1-0.2 0.1-0.4 0.1-0.3-0.2-1c-15.4-37.6-38.5-71.7-65.9-101.6q-25.2-27.5-39-40-15.8-14.4-25.8-24.2-21.8-21-40.5-46.3-3.1-4.1-3.7-7.3c-1.2-6.3 2.7-12 8.6-13.9 5.8-1.8 11.4 0.3 15.1 5q14.2 17.8 19.5 23.5 21.5 22.9 44.4 44.3c15 14.1 30.9 30.1 43.2 43.9q29.5 33 52.6 74.7 0.2 0.3 0.5 0.3 0.1 0.1 0.3 0.1 0 0.1 0.1 0.1 0.1-0.1 0.2-0.1 0.1-0.1 0.1-0.2 0-0.1 0-0.2-1.1-3-1.9-6.2c-14.5-59.5-38.3-117.7-66.8-171.8-10.8-20.4-23-40.1-34.9-59.9-7.3-12.2-13.9-24.8-20.7-37.3-16.7-30.7-43-56.8-68.1-79.5-7.6-6.9-7.1-19 3.2-22.5 5.5-1.8 12.9 1.6 16.7 4.9q15.6 13.7 30 29 0.4 0.5 0.9 0.1 0.2-0.2 0.1-0.7-0.4-11.7-0.2-23.3 0.1-6.2 1.4-9.1c5.1-10.7 21.9-7.9 23.6 3.8 1.8 13 1.1 26.8 1.2 40q0 0.1 0.1 0.2 0.1 0.2 0.2 0.2 0.1 0 0.2 0 0.2-0.1 0.2-0.2c3-5.5 4.5-10 9-16.3 6.3-8.6 16.2-15.9 15-29.8q-1.3-16.7-8.4-38.8c-3.3-10.3-7.5-21.1-10.1-30.8q-7-26-10.2-52.7c-0.6-4.9 0-13 4.5-16 9.5-6.5 18.6-0.9 20.3 9.6 3.3 20.2 7.2 40.3 13.4 59.9q0.1 0.2 0.2 0.3 0.2 0.1 0.4 0.1 0.2 0.1 0.3 0 0.2-0.1 0.3-0.3c8.4-13.7 20.5-18.1 35.7-21.2 1.6-0.3 3.6-1.2 3.9-2.8 1.1-7.4-5.1-15.8-7.1-22.2-4.3-14.1-2.7-30.3 7-41.9q3.2-3.8 6.5-7.4c8.5-9.5 0.7-18.9-7.1-24.7-7.6-5.6-16.5-10.9-25.9-12.7q-9.5-2-19.2 0zm429.4 90.8c-9.3 24.2-17 48.6-21.5 74.2q-1.2 7-0.7 14.1 0.9 14.4 2.6 28.8c1.5 11.5 8 16.1 16.5 22.6 8.8 6.8 13.9 16.4 16.8 27.1q0.5 1.7 1.5 0.2l5.8-8.8q0.1-0.2 0.1-0.4 0.1-0.1 0.2-0.3 0-0.2 0-0.3 0.1-0.2 0.1-0.4-0.1-39.7 0-79.6 0-3.3 0.2-5c1.2-8 8.5-12.4 15.9-9.9 3.7 1.3 8.8 5.3 8.7 9.5q-0.1 27.6 0.2 55.2 0 3.6-0.3 7.2 0 0.1 0 0.2 0.1 0.1 0.2 0.2 0.1 0.1 0.2 0.1 0.1 0 0.2 0 0.1-0.1 0.3-0.1 0.2-0.1 0.4-0.2c17.2-18.5 38-33.4 60.3-45.2 16.3-8.7 29.9 12 12.2 22.3-36.8 21.5-68.5 50.3-94 84.5q-3.6 4.8-7 10.3c-16.7 27.1-31.2 55.7-49.6 81.7q-1.4 2 0.6 0.6c16.2-10.9 35-19.1 53.5-25.2q7.2-2.4 10.8-2.1c9.5 0.7 15.8 11.7 8.3 19.5q-1.9 2-8.4 4.8-9.1 3.7-18.2 7.6-20.3 8.5-45.3 25c-33.7 22.3-57.8 51.4-78.9 85.6-15 24.3-28.8 49.3-38.9 75.4-10.9 27.9-19.6 56.1-24.6 85.7q-2.3 13.6-4.3 27.2-0.2 1.1-0.2 1.2 0.7 2.5 1.8 0.2 9-20 18.3-39.7c14.9-31.2 33.7-60.4 57.3-85.8 38.6-41.7 80.1-78.7 120.3-117.9q3.4-3.3 7.9-8.2c6.4-7 16.5-21.3 27.6-14.2 9.9 6.2 5.3 15.5-0.5 22.5q-18.4 22.1-39.9 41.3-0.8 0.6-0.8 0.8-1.1 2 1 0.9 11.2-6.3 23.8-10.1 14-4.2 39.5-7.1 17.4-1.9 22.1-2.9c18.2-4 36.3-13.1 40.3-32.6q0.7-3.4 0.5-14.8c-0.3-18.7 1.5-35.6 12.7-51.2q6.9-9.7 9.5-12.1 5.7-5.2 9.5-10.6c14.2-20.8-6.8-40.2-22.3-50.6q-7-4.8-11.7-10c-11.6-12.9-5.5-33.1 4.5-44.8 12.2-14.3 26.1-22.9 22.8-43.4-2.6-16.3-15.5-27.7-27-38.3-10.2-9.6-18.3-23.4-20.8-38.4-0.5-3.4-8-2-9.9-1.8-11.7 1.2-21 1.6-30.4-1-22-6.2-27.7-26-32.4-45.6-4.3-18-16.7-31.8-34.1-38.6q-13.4-5.2-27.8-7.1c-15.7-2-32-3.3-47.9-2-7.4 0.6-19.7 6.5-19 16.1 0.3 4 4.6 9.6 6.8 13.1 11.7 18.8 8 39.9-3.7 57.5q-4.6 7-9.3 13.9c-9.9 14.7 5.9 19.6 16.3 21.5 8.6 1.6 17 4 24.5 8.7q0.2 0.1 0.4 0.1 0.2 0.1 0.4 0 0.2-0.1 0.4-0.3 0.1-0.2 0.2-0.4 1.2-5.6 2.6-11.4 5.4-22.6 13.6-44.4 2.8-7.3 5.6-14.6c2.9-7.6 6.4-13.8 15.1-12.2q7.1 1.3 10.2 7.7c2 4.2-0.1 10.3-1.7 14.5zm-122.4 543.8q-0.2 0.4-0.2 0.8 0 0.1 0 0.2 0.1 0.1 0.2 0.2 0.1 0.1 0.3 0.1 0.1-0.1 0.2-0.1c23.2-17.2 48-32.6 72.3-48.5 6.8-4.5 16.2-12.4 17.8-21.3 1.1-6.3 0.8-14.3 2.2-20.7q3.8-17.3 14.2-31.9 0.4-0.6 0.1-1.2-0.1-0.2-0.3 0-32.5 29.1-61.7 61.5c-17.9 20-31.6 39.4-45.1 60.9z"/>
			<path id="Layer" class="s2" d="m747.2 398.9c0 1.4-0.2 2.9-0.8 4.3-0.5 1.4-1.4 2.7-2.4 3.7-1 1.1-2.3 2-3.7 2.6-1.3 0.5-2.8 0.9-4.3 0.9l-36.1 0.5c-1.5 0-2.9-0.3-4.3-0.8-1.4-0.6-2.7-1.4-3.8-2.4-1-1.1-1.9-2.3-2.5-3.7-0.6-1.4-0.9-2.8-0.9-4.3v-1.4c0-1.5 0.2-3 0.8-4.4 0.5-1.4 1.4-2.6 2.4-3.7 1-1.1 2.3-1.9 3.7-2.5 1.3-0.6 2.8-0.9 4.3-1l36.1-0.5c1.5 0 2.9 0.3 4.3 0.8 1.4 0.6 2.7 1.4 3.8 2.5 1 1 1.9 2.2 2.5 3.6 0.6 1.4 0.9 2.9 0.9 4.3z"/>
		</g>
		<filter id="f1">
			<feFlood flood-color="#8fdf54" flood-opacity="1" />
			<feBlend mode="normal" in2="SourceGraphic"/>
			<feComposite in2="SourceAlpha" operator="in" />
		</filter>
		<g id="Folder 1" filter="url(#f1)">
			<path id="Layer" class="s1" d="m446.8 404.8c0.4-52.1 0.7-104.2 0.6-156.3 0-11.5 7.3-26.6 13.2-36.3 12.6-20.6 28.1-38.8 45.1-55.8 5.6-5.6 5.1-14.5-1.2-19-6.9-5-13.9-1.9-19.5 3.2-14.3 13.2-27.8 28.7-36.5 45.6q-0.1 0.2-0.2 0.3-0.3 0.2-0.4 0.2-0.7 0.2-0.7-0.6 0.2-33.8-0.4-67.7c0-3.2-0.4-7.3-2.6-9.9q-3.3-3.9-8.4-5.2-2.3-0.5-5 0.4c-10.9 3.5-9.2 9.3-9.8 19q-0.3 4.4-0.4 8.7c-0.4 63 0 126-0.6 189.1q0 0.1 0 0.1-0.1 0.1-0.2 0.2 0 0-0.1 0-0.1 0-0.2 0-1.1-0.7-1.2-1.9 0-0.6-0.3-1c-10.2-16.9-23.9-31.2-39.1-43.7-5.6-4.6-10.8-8.3-18.6-5.5-10.5 3.7-8.8 16.8-1.4 22.9 21.8 18 40.1 40.4 51.9 66.2q5.5 12.2 7.8 25.4 1.1 7 1.3 20.8 0.4 46.1 0.2 92.2 0 0.4-0.4 0.5l-0.4 0.1q-0.1 0-0.2 0-0.2 0-0.3-0.1-0.1-0.1-0.2-0.2-0.1-0.1-0.1-0.2-0.3-2.5-1.5-4.6c-8-13.8-18.6-26.2-29.2-37.9-1.8-1.9-2.8-5.3-3.3-8.3-4.4-24-11.1-47.2-18.6-70.4-3.4-10.6-12.5-18.3-23.3-9.9-6.5 5-2.1 16.9 0.1 23.4q5.9 17.5 10.8 35.8 0.2 0.6-0.4 0.6-0.3 0-0.8-0.5c-7.3-7.1-21-16.7-30.8-9.3-5.1 3.8-5.2 12.7-2.5 17.2 1.2 2 5 5.2 7.5 6.8q55.2 36.2 85.3 95.2 3.1 6 6.4 11.8c1.9 3.4 2.3 8.9 2.2 13.5q-0.8 105.9-0.1 211.8c0 13.7-0.2 28-0.1 42.1q0 0.6-0.5 0.2-33.6-29.2-47.9-71c-13.3-38.8-24.1-79.3-35.3-119.2q-3.2-11.1-6.2-20c-18.4-55.2-40.3-107.4-69.6-157.6-11.6-19.7-24.8-38.2-33.5-59.5q-11.3-27.7 2.4-52.5c3.8-7 11.3-15.4 15.7-21.2q7.6-10 8.9-22.3 0.4-4.5-1-16.7-0.9-8.4-1.5-16.8c-0.9-13.8 4.9-34.7 20.1-38.7q6.5-1.6 12.8-3.5c14.2-4.2 21.2-16.5 20.3-30.8-0.6-9.8-5.8-18.2-8.3-27.7-3.1-12.1 3.9-18 11.2-26.3q7.5-8.6 7.9-20.1 0.3-12 1.5-24c0.4-4.4 1.9-7.8 3.4-11.8 7.4-20.1 24.3-18.3 42.5-18.2 2.5 0 4.9-0.5 7.4-0.9 20.4-2.6 34.1-17.6 52.9-24.4 14-5.1 29.9-6.5 44.4-3.1 20.4 4.9 37.9 19.2 42.7 39.6 2.8 12.3 4.6 22.9 11.8 32.4 14.1 18.8 54.7 35.7 43.1 64.4q-1.4 3.3-6 10c-7.6 11-15.3 22.4-14.9 36.6 0.4 15.9 10.9 28.8 25.8 34.2q5.2 1.9 19.1 4.8c9.4 1.9 17.4 5.3 21.9 14.6 3.6 7.6 4.4 16.5 4.5 24.7 0.3 13.2 3.3 24.6 13.7 33.3 3.5 2.9 9 5.7 12.3 8.8q10.6 10 8.1 25.8c-2.4 15.3-8.5 29-15.4 42.7q-13.2 25.7-21.1 38.6c-9.3 15.1-18.5 31-28.1 45.5-13 19.6-28.7 40.4-40.1 56.8-41.1 58.6-71 125.5-82.8 196.4-0.8 4.7-1.3 10.8-2.3 16.2q-0.5 3.2-0.7 8.1c-0.1 3.9-1 7.8-1.1 11.3-0.4 9.2-0.7 18.1-1.4 27.2-0.3 4.9-3.3 6.4-5.9 10q-1.1 1.5-2 2.6-2.2 2.6-2.2-0.7 0-105.3 0.1-211.8c0-9.6 1.6-17.8 4.4-26.4q4.7-14.7 12.7-29.2 30.6-56.3 81.2-95.6c5.1-4 9.3-9.5 7.9-15.6-1.3-5.2-6.1-9.4-11.5-9.7-3.8-0.1-8.6 2.3-11.4 4.4q-25.6 19.3-46.6 43.7c-13.1 15.2-22.8 27.2-31.5 42.4-2 3.4-3.1 7-5 10.2q-1.1 1.9-1-0.2 1.5-22.4 1.5-45.5 0-3.1 2.3-10 19.3-56.5 64.6-95.3 7.9-6.8 16-13.5c6.4-5.3 6.1-13.8 0.3-19.4q-3.2-3-7.2-3.3c-6.8-0.6-17.3 7.7-22 12.3q-1.6 1.6-2.2 2.5-2 3.2-1.9-0.6 0-19.5-0.1-40.7c0-17.2-25.1-19.5-25.2-2.1q-0.1 32.6 0.2 65.4 0 0.3 0 0.5-0.1 0.3-0.1 0.6-0.1 0.2-0.3 0.5-0.1 0.2-0.2 0.4c-9.2 12.3-18.4 25.4-24.1 39.6q-0.1 0.2-0.2 0.3-0.1 0.1-0.3 0.2-0.1 0-0.3 0-0.2-0.1-0.3-0.1-0.6-0.5-0.5-1.4 0.6-4.6 0.7-9.2z"/>
			<path id="Layer" class="s1" d="m251.5 79c9.4 1.8 18.3 7.1 25.9 12.7 7.8 5.8 15.6 15.2 7.1 24.7q-3.3 3.6-6.5 7.4c-9.7 11.6-11.3 27.8-7 41.9 2 6.4 8.2 14.8 7.1 22.2-0.3 1.6-2.3 2.5-3.9 2.8-15.2 3.1-27.3 7.5-35.7 21.2q-0.1 0.2-0.3 0.3-0.1 0.1-0.3 0-0.2 0-0.4-0.1-0.1-0.1-0.2-0.3c-6.2-19.6-10.1-39.7-13.4-59.9-1.7-10.5-10.8-16.1-20.3-9.6-4.5 3-5.1 11.1-4.5 16q3.2 26.7 10.2 52.7c2.6 9.7 6.8 20.5 10.1 30.8q7.1 22.1 8.4 38.8c1.2 13.9-8.7 21.2-15 29.8-4.5 6.3-6 10.8-9 16.3q0 0.1-0.2 0.2-0.1 0-0.2 0-0.1 0-0.2-0.2-0.1-0.1-0.1-0.2c-0.1-13.2 0.6-27-1.2-40-1.7-11.7-18.5-14.5-23.6-3.8q-1.3 2.9-1.4 9.1-0.2 11.6 0.2 23.3 0.1 0.5-0.1 0.7-0.5 0.4-0.9-0.1-14.4-15.3-30-29c-3.8-3.3-11.2-6.7-16.7-4.9-10.3 3.5-10.8 15.6-3.2 22.5 25.1 22.7 51.4 48.8 68.1 79.5 6.8 12.5 13.4 25.1 20.7 37.3 11.9 19.8 24.1 39.5 34.9 59.9 28.5 54.1 52.3 112.3 66.8 171.8q0.8 3.2 1.9 6.2 0 0.1 0 0.2 0 0.1-0.1 0.2-0.1 0-0.2 0.1-0.1 0-0.1-0.1-0.2 0-0.3-0.1-0.3 0-0.5-0.3-23.1-41.7-52.6-74.7c-12.3-13.8-28.2-29.8-43.2-43.9q-22.9-21.4-44.4-44.3-5.3-5.7-19.5-23.5c-3.7-4.7-9.3-6.8-15.1-5-5.9 1.9-9.8 7.6-8.6 13.9q0.6 3.2 3.7 7.3 18.7 25.3 40.5 46.3 10 9.8 25.8 24.2 13.8 12.5 39 40c27.4 29.9 50.5 64 65.9 101.6q0.3 0.7 0.2 1 0 0.2-0.1 0.4-0.1 0.1-0.3 0.2-0.2 0.1-0.4 0.1-0.2-0.1-0.3-0.2-3.5-2.3-7.2-4.5-39.4-23.5-54-32.3c-13.1-8-26.2-19.9-31.7-34.9q-1.7-4.8-3-15.1c-2.2-17.7-5-32.7-15.7-47.6q-24-33.3-65.8-40.7-15.3-2.7-30.6-5.5c-13.6-2.4-26.3-10.4-33.7-22.1-11.3-18.1 1-38.6 2.7-57.5 1.4-15.2-5.7-23.5-15.9-33.2-4.4-4.1-12.7-10.5-17.4-16.8-17.3-23-7.7-54 14.8-69.1q6.5-4.4 15.8-7.7c15.7-5.6 26.8-19.4 21.4-36.7q-1-3.3-5.9-14.1c-8.2-18.2-1.5-36.6 13.2-48.9q15.6-13.1 35.8-13.6 4.1-0.1 11.3-2.7c24.1-8.5 34.6-43.2 41.7-64.9q4.4-13.4 7.2-18.8c8.7-16.8 22.5-31.5 41.3-36.7 2.3 0.2 4.1 0.2 6.7-0.3q2.7-0.5 5.5 0c2.7 0.5 4.5 0.5 7 0.3z"/>
			<path id="Layer" fill-rule="evenodd" class="s1" d="m640.2 244c4.5-25.6 12.2-50 21.5-74.2 1.6-4.2 3.7-10.3 1.7-14.5q-3.1-6.4-10.2-7.7c-8.7-1.6-12.2 4.6-15.1 12.2q-2.8 7.3-5.6 14.6-8.2 21.8-13.6 44.4-1.4 5.8-2.6 11.4-0.1 0.2-0.2 0.4-0.2 0.2-0.4 0.3-0.2 0.1-0.4 0-0.2 0-0.4-0.1c-7.5-4.7-15.9-7.1-24.5-8.7-10.4-1.9-26.2-6.8-16.3-21.5q4.7-6.9 9.3-13.9c11.7-17.6 15.4-38.7 3.7-57.5-2.2-3.5-6.5-9.1-6.8-13.1-0.7-9.6 11.6-15.5 19-16.1 15.9-1.3 32.2 0 47.9 2q14.4 1.9 27.8 7.1c17.4 6.8 29.8 20.6 34.1 38.6 4.7 19.6 10.4 39.4 32.4 45.6 9.4 2.6 18.7 2.2 30.4 1 1.9-0.2 9.4-1.6 9.9 1.8 2.5 15 10.6 28.8 20.8 38.4 11.5 10.6 24.4 22 27 38.3 3.3 20.5-10.6 29.1-22.8 43.4-10 11.7-16.1 31.9-4.5 44.8q4.7 5.2 11.7 10c15.5 10.4 36.5 29.8 22.3 50.6q-3.8 5.4-9.5 10.6-2.6 2.4-9.5 12.1c-11.2 15.6-13 32.5-12.7 51.2q0.2 11.4-0.5 14.8c-4 19.5-22.1 28.6-40.3 32.6q-4.7 1-22.1 2.9-25.5 2.9-39.5 7.1-12.6 3.8-23.8 10.1-2.1 1.1-1-0.9 0-0.2 0.8-0.8 21.5-19.2 39.9-41.3c5.8-7 10.4-16.3 0.5-22.5-11.1-7.1-21.2 7.2-27.6 14.2q-4.5 4.9-7.9 8.2c-40.2 39.2-81.7 76.2-120.3 117.9-23.6 25.4-42.4 54.6-57.3 85.8q-9.3 19.7-18.3 39.7-1.1 2.3-1.8-0.2 0-0.1 0.2-1.2 2-13.6 4.3-27.2c5-29.6 13.7-57.8 24.6-85.7 10.1-26.1 23.9-51.1 38.9-75.4 21.1-34.2 45.2-63.3 78.9-85.6q25-16.5 45.3-25 9.1-3.9 18.2-7.6 6.5-2.8 8.4-4.8c7.5-7.8 1.2-18.8-8.3-19.5q-3.6-0.3-10.8 2.1c-18.5 6.1-37.3 14.3-53.5 25.2q-2 1.4-0.6-0.6c18.4-26 32.9-54.6 49.6-81.7q3.4-5.5 7-10.3c25.5-34.2 57.2-63 94-84.5 17.7-10.3 4.1-31-12.2-22.3-22.3 11.8-43.1 26.7-60.3 45.2q-0.2 0.1-0.4 0.2-0.2 0-0.3 0.1-0.1 0-0.2 0-0.1 0-0.2-0.1-0.1-0.1-0.2-0.2 0-0.1 0-0.2 0.3-3.6 0.3-7.2-0.3-27.6-0.2-55.2c0.1-4.2-5-8.2-8.7-9.5-7.4-2.5-14.7 1.9-15.9 9.9q-0.2 1.7-0.2 5-0.1 39.9 0 79.6 0 0.2-0.1 0.4 0 0.1 0 0.3-0.1 0.2-0.2 0.3 0 0.2-0.1 0.4l-5.8 8.8q-1 1.5-1.5-0.2c-2.9-10.7-8-20.3-16.8-27.1-8.5-6.5-15-11.1-16.5-22.6q-1.7-14.4-2.6-28.8-0.5-7.1 0.7-14.1zm107 153.4c0-1.4-0.3-2.9-0.9-4.3-0.6-1.4-1.5-2.6-2.5-3.6-1.1-1.1-2.4-1.9-3.8-2.5-1.4-0.5-2.8-0.8-4.3-0.8l-36.1 0.5c-1.5 0.1-3 0.4-4.3 1-1.4 0.6-2.7 1.4-3.7 2.5-1 1.1-1.9 2.3-2.4 3.7-0.6 1.4-0.8 2.9-0.8 4.4v1.4c0 1.5 0.3 2.9 0.9 4.3 0.6 1.4 1.5 2.6 2.5 3.7 1.1 1 2.4 1.8 3.8 2.4 1.4 0.5 2.8 0.8 4.3 0.8l36.1-0.5c1.5 0 3-0.4 4.3-0.9 1.4-0.6 2.7-1.5 3.7-2.6 1-1 1.9-2.3 2.4-3.7 0.6-1.4 0.8-2.9 0.8-4.3z"/>
		</g>
	</g>
	<text id="lettuce" style="transform: matrix(3.908,0,0,3.908,22.948,1041.795)" >
		<tspan x="0" y="0" class="t3">l</tspan><tspan  y="0" class="t3">e</tspan><tspan  y="0" class="t3">t</tspan><tspan  y="0" class="t3">t</tspan><tspan  y="0" class="t3">u</tspan><tspan  y="0" class="t3">c</tspan><tspan  y="0" class="t3">e
</tspan>
	</text>
</svg>