<svg version="1.2" xmlns="http://www.w3.org/2000/svg" viewBox="0 0 1024 1224" width="1024" height="1224">
	<title>OIG</title>
	<style>
		tspan { white-space:pre } 
		.s0 { fill: none;stroke: #4d6a37;stroke-width: 2 } 
		.s1 { fill: #7fb954 } 
		.s2 { fill: #1a1a19 } 
		.t3 { font-size: 60px;fill: #396c13;font-weight: 400;font-family: "UbuntuMono-Regular", "Ubuntu Mono" } 
	</style>
	<g id="Folder 3">
		<filter id="f0">
			<feFlood flood-color="#396c13" flood-opacity="1" />
			<feBlend mode="normal" in2="SourceGraphic"/>
			<feComposite in2="SourceAlpha" operator="in" />
		</filter>
		<g id="Folder 2" filter="url(#f0)">
			<path id="Layer" fill-rule="evenodd" class="s0" d="m621.3 812.5q-0.2 0.4-0.2 0.8-0.1 0.1 0 0.2 0.1 0.1 0.2 0.2 0.2 0.1 0.3 0.1 0.1 0 0.3-0.1c23.9-17.7 49.4-33.6 74.4-50 7.1-4.6 16.8-12.8 18.4-22 1.2-6.4 0.8-14.7 2.3-21.3q3.9-17.8 14.6-32.9 0.4-0.6 0.1-1.2-0.1-0.2-0.2-0.1-33.6 30.1-63.7 63.5c-18.5 20.6-32.5 40.6-46.5 62.8z"/>
			<path id="Layer" fill-rule="evenodd" class="s0" d="m526.5 332.9c0.1 53.7-0.1 107.5-0.6 161.2q0 4.7-0.7 9.4-0.1 1 0.5 1.5 0.2 0.1 0.3 0.1 0.2 0 0.3 0 0.2-0.1 0.3-0.2 0.2-0.1 0.2-0.3c5.9-14.7 15.4-28.1 24.9-40.8q0.1-0.2 0.3-0.5 0.1-0.2 0.2-0.5 0.1-0.3 0.1-0.5 0-0.3 0-0.6-0.3-33.8-0.2-67.5c0.1-17.9 26-15.5 26 2.3q0.1 21.7 0 41.9 0 4 2.1 0.6 0.6-0.9 2.2-2.5c4.8-4.8 15.7-13.3 22.7-12.8q4.2 0.4 7.5 3.5c5.9 5.7 6.2 14.5-0.3 19.9q-8.4 7-16.6 14-46.7 39.9-66.6 98.2-2.4 7.1-2.4 10.3 0 23.8-1.4 46.9-0.2 2.2 0.9 0.3c2-3.3 3.2-7.1 5.1-10.5 9.1-15.7 19.1-28.1 32.6-43.8q21.6-25.1 48-45c2.9-2.2 7.9-4.7 11.7-4.5 5.6 0.3 10.6 4.6 11.9 10 1.5 6.3-2.8 12-8.2 16.1q-52.1 40.5-83.7 98.5-8.2 15-13.1 30.1c-2.9 8.9-4.5 17.3-4.5 27.3q0 109.7 0 218.3 0 3.4 2.1 0.8 1-1.2 2.1-2.8c2.7-3.6 5.8-5.2 6.2-10.2 0.7-9.4 1-18.7 1.3-28.1 0.2-3.6 1.1-7.7 1.2-11.6q0.2-5.1 0.8-8.5c0.9-5.5 1.5-11.8 2.3-16.6 12.1-73.1 43-142.1 85.3-202.6 11.8-16.8 28-38.2 41.5-58.5 9.8-14.9 19.3-31.3 28.9-46.9q8.2-13.2 21.7-39.8c7.2-14.2 13.5-28.2 16-44q2.5-16.3-8.4-26.6c-3.4-3.2-9.1-6.1-12.7-9.1-10.8-9-13.8-20.7-14.1-34.3-0.2-8.5-0.9-17.7-4.7-25.5-4.6-9.6-12.8-13.1-22.5-15.1q-14.3-3-19.7-4.9c-15.4-5.6-26.2-18.8-26.7-35.3-0.4-14.6 7.6-26.3 15.4-37.7q4.8-6.9 6.2-10.3c12-29.6-29.9-47-44.5-66.4-7.3-9.8-9.2-20.8-12.1-33.4-4.9-21-23-35.8-44-40.8-15-3.6-31.3-2.1-45.8 3.1-19.3 7-33.5 22.5-54.6 25.3-2.5 0.3-5 0.9-7.6 0.9-18.8-0.1-36.2-2.1-43.8 18.7-1.6 4.1-3.1 7.7-3.5 12.2q-1.2 12.3-1.6 24.7-0.3 11.9-8.1 20.8c-7.5 8.6-14.7 14.6-11.5 27.1 2.5 9.7 7.9 18.4 8.5 28.5 1 14.7-6.3 27.5-20.9 31.8q-6.5 1.9-13.2 3.6c-15.7 4.1-21.7 25.6-20.7 39.9q0.5 8.7 1.5 17.3 1.5 12.6 1 17.3-1.3 12.6-9.2 23c-4.5 5.9-12.2 14.6-16.1 21.8q-14.1 25.5-2.5 54.1c8.9 21.9 22.6 41.1 34.5 61.4 30.3 51.7 52.8 105.5 71.8 162.5q3.1 9.1 6.3 20.6c11.6 41.1 22.8 82.9 36.5 122.9q14.7 43.1 49.4 73.2 0.5 0.4 0.5-0.3c-0.1-14.4 0.1-29.2 0.1-43.3q-0.7-109.2 0.1-218.4c0.1-4.7-0.3-10.4-2.3-13.9q-3.4-6-6.5-12.2-31.1-60.8-88-98.1c-2.6-1.7-6.5-5-7.7-7-2.8-4.7-2.7-13.9 2.5-17.8 10.2-7.6 24.3 2.2 31.8 9.6q0.5 0.5 0.8 0.5 0.6 0 0.4-0.6-5-18.9-11.1-36.9c-2.2-6.7-6.8-19-0.1-24.2 11.1-8.6 20.5-0.6 24 10.3 7.7 23.9 14.7 47.8 19.2 72.6 0.5 3 1.6 6.5 3.4 8.5 10.9 12 21.9 24.9 30.1 39q1.3 2.3 1.6 4.8 0 0.1 0.1 0.3 0 0.1 0.2 0.2 0.1 0 0.2 0.1 0.2 0 0.3-0.1l0.4-0.1q0.3-0.1 0.3-0.4 0.3-47.7-0.1-95.1-0.2-14.3-1.4-21.5-2.3-13.6-8-26.2c-12.2-26.6-31-49.7-53.5-68.2-7.7-6.3-9.4-19.8 1.5-23.7 7.9-2.8 13.3 1 19.1 5.8 15.7 12.9 29.8 27.5 40.3 45q0.3 0.4 0.4 1 0.1 1.3 1.2 1.9 0.1 0.1 0.1 0.1 0.1 0 0.2-0.1 0.1 0 0.1-0.1 0.1-0.1 0.1-0.2c0.6-65 0.2-129.9 0.7-194.9q0-4.4 0.3-9c0.6-9.9-1.1-16 10.1-19.6q2.8-0.9 5.2-0.3 5.2 1.2 8.6 5.3c2.3 2.7 2.7 6.9 2.7 10.2q0.7 35 0.5 69.8-0.1 0.8 0.7 0.6 0.1 0 0.3-0.2 0.2-0.1 0.3-0.3c8.9-17.4 22.9-33.4 37.6-47 5.7-5.2 13-8.5 20.1-3.4 6.5 4.8 7 13.9 1.3 19.6-17.6 17.6-33.5 36.4-46.5 57.6-6.2 10-13.7 25.5-13.7 37.4z"/>
			<path id="Layer" fill-rule="evenodd" class="s0" d="m304.7 158.2c-19.3 5.3-33.5 20.5-42.5 37.8q-2.9 5.6-7.4 19.4c-7.3 22.4-18.2 58.1-43.1 66.9q-7.4 2.7-11.5 2.8-20.9 0.5-37 14c-15.1 12.7-22.1 31.7-13.6 50.4q5 11.1 6.1 14.6c5.6 17.8-5.9 32-22.1 37.8q-9.6 3.5-16.3 8c-23.2 15.5-33.1 47.5-15.2 71.2 4.8 6.5 13.4 13.1 17.9 17.3 10.5 10 17.8 18.5 16.4 34.3-1.8 19.4-14.4 40.6-2.7 59.2 7.5 12.1 20.7 20.3 34.6 22.8q15.8 2.9 31.6 5.7 43.1 7.7 67.8 42c11 15.3 13.9 30.8 16.2 49q1.4 10.7 3.2 15.6c5.6 15.5 19.1 27.7 32.6 35.9q15.1 9.2 55.7 33.4 3.8 2.2 7.4 4.7 0.2 0.1 0.3 0.1 0.2 0 0.4-0.1 0.2 0 0.3-0.2 0.2-0.1 0.2-0.3 0.1-0.4-0.2-1.1c-16-38.8-39.7-73.9-68-104.8q-26-28.3-40.2-41.3-16.3-14.8-26.7-24.8-22.4-21.7-41.7-47.8-3.2-4.2-3.8-7.6c-1.2-6.4 2.8-12.3 8.9-14.3 5.9-1.9 11.7 0.4 15.6 5.2q14.5 18.3 20 24.2 22.2 23.6 45.8 45.7c15.5 14.5 31.9 31.1 44.6 45.2q30.4 34.1 54.2 77 0.2 0.3 0.5 0.4 0.2 0.1 0.3 0.1 0.1 0.1 0.2 0.1 0.1-0.1 0.2-0.1 0-0.1 0.1-0.2 0-0.1-0.1-0.2-1.1-3.1-1.9-6.4c-15-61.3-39.5-121.4-68.9-177.1-11.1-21.1-23.8-41.4-36-61.8-7.5-12.6-14.3-25.6-21.3-38.5-17.3-31.6-44.3-58.5-70.2-81.9-7.9-7.2-7.3-19.6 3.3-23.2 5.6-1.9 13.3 1.6 17.2 5.1q16.1 14.1 30.9 29.8 0.5 0.5 1 0.1 0.1-0.1 0.1-0.7-0.4-12-0.3-24 0.1-6.4 1.5-9.4c5.2-11 22.6-8.2 24.3 3.9 1.9 13.4 1.2 27.6 1.2 41.3q0 0.1 0.1 0.2 0.1 0.1 0.2 0.1 0.2 0.1 0.3 0 0.1 0 0.2-0.2c3.1-5.6 4.6-10.2 9.2-16.7 6.6-9 16.7-16.5 15.6-30.8q-1.5-17.2-8.7-39.9c-3.4-10.7-7.8-21.8-10.5-31.8q-7.1-26.8-10.5-54.4c-0.6-5 0.1-13.3 4.7-16.5 9.7-6.7 19.1-0.9 20.9 9.9 3.4 20.9 7.4 41.6 13.8 61.8q0.1 0.2 0.2 0.3 0.2 0.1 0.4 0.1 0.2 0.1 0.4 0 0.2-0.1 0.3-0.3c8.6-14.1 21.1-18.6 36.7-21.8 1.7-0.4 3.8-1.3 4-3 1.2-7.6-5.2-16.3-7.2-22.8-4.5-14.6-2.8-31.3 7.2-43.3q3.3-3.9 6.6-7.6c8.9-9.8 0.8-19.4-7.3-25.4-7.8-5.9-17-11.3-26.7-13.1"/>
			<path id="Layer" fill-rule="evenodd" class="s0" d="m747.5 251.8c-9.6 24.9-17.6 50.1-22.1 76.5q-1.3 7.2-0.8 14.5 0.9 14.9 2.7 29.7c1.5 11.9 8.3 16.6 17 23.3 9.1 7 14.4 16.9 17.3 27.9q0.5 1.9 1.5 0.3l6-9.2q0.1-0.1 0.2-0.3 0.1-0.1 0.1-0.3 0.1-0.2 0.1-0.4 0-0.2 0-0.4 0-40.8 0-82.1 0-3.3 0.3-5.1c1.3-8.3 8.7-12.8 16.3-10.2 3.8 1.3 9.1 5.5 9.1 9.8q-0.1 28.5 0.1 56.9 0.1 3.7-0.3 7.5 0 0.1 0.1 0.2 0 0.1 0.1 0.1 0.1 0.1 0.2 0.1 0.1 0.1 0.2 0 0.1 0 0.4-0.1 0.2 0 0.3-0.2c17.8-19.1 39.3-34.3 62.2-46.6 16.8-8.9 30.9 12.4 12.6 23.1-37.9 22.1-70.6 51.8-96.9 87.1q-3.7 4.9-7.2 10.6c-17.2 27.9-32.2 57.4-51.1 84.2q-1.5 2.1 0.6 0.6c16.6-11.2 36.1-19.7 55.1-25.9q7.4-2.5 11.2-2.2c9.7 0.7 16.3 12.1 8.6 20.1q-2.1 2.1-8.8 4.9-9.4 3.9-18.7 7.9-20.9 8.7-46.7 25.8c-34.7 22.9-59.6 53-81.4 88.2-15.4 25-29.6 50.9-40.1 77.8-11.2 28.7-20.2 57.9-25.3 88.3q-2.4 14-4.5 28.1-0.2 1.1-0.1 1.2 0.6 2.6 1.7 0.2 9.3-20.6 19-40.9c15.3-32.2 34.7-62.3 59-88.5 39.8-43 82.7-81.1 124.1-121.6q3.5-3.4 8.1-8.4c6.6-7.2 17-21.9 28.5-14.7 10.2 6.4 5.4 16.1-0.5 23.2q-19 22.9-41.2 42.6-0.8 0.7-0.8 0.8-1.1 2.2 1 1 11.6-6.5 24.5-10.4 14.5-4.4 40.8-7.3 17.9-2 22.8-3.1c18.7-4 37.4-13.5 41.5-33.5q0.8-3.6 0.6-15.3c-0.3-19.2 1.5-36.7 13-52.8q7.1-10 9.9-12.4 5.8-5.4 9.7-11c14.7-21.4-7-41.4-23-52.2q-7.2-4.9-12.1-10.3c-11.9-13.2-5.6-34.1 4.7-46.2 12.6-14.7 26.9-23.6 23.5-44.8-2.7-16.7-16-28.4-27.8-39.4-10.6-9.9-18.9-24.2-21.4-39.6-0.6-3.5-8.3-2-10.2-1.8-12.1 1.2-21.7 1.6-31.4-1.1-22.7-6.4-28.6-26.8-33.4-47-4.4-18.6-17.3-32.8-35.2-39.8q-13.8-5.4-28.6-7.3c-16.3-2.1-33-3.4-49.4-2.1-7.7 0.6-20.3 6.8-19.6 16.6 0.2 4.2 4.7 9.9 7 13.6 12 19.3 8.3 41.1-3.8 59.2q-4.8 7.2-9.6 14.4c-10.3 15 6.1 20.2 16.8 22.2 8.9 1.6 17.5 4.1 25.2 8.9q0.2 0.1 0.5 0.1 0.2 0 0.4 0 0.2-0.1 0.4-0.3 0.1-0.2 0.2-0.4 1.2-5.9 2.7-11.8 5.5-23.3 14-45.7 2.9-7.6 5.8-15.2c2.9-7.8 6.5-14.1 15.6-12.5q7.2 1.3 10.4 7.9c2.1 4.4 0 10.7-1.7 15z"/>
			<path id="Layer" class="s1" d="m621.3 812.5c14-22.2 28-42.2 46.5-62.8q30.1-33.4 63.7-63.5 0.1-0.1 0.2 0.1 0.3 0.6-0.1 1.2-10.7 15.1-14.6 32.9c-1.5 6.6-1.1 14.9-2.3 21.3-1.6 9.2-11.3 17.4-18.4 22-25 16.4-50.5 32.3-74.4 50q-0.2 0.1-0.3 0.1-0.1 0-0.3-0.1-0.1-0.1-0.2-0.2-0.1-0.1 0-0.2 0-0.4 0.2-0.8z"/>
			<path id="Layer" fill-rule="evenodd" class="s0" d="m835.7 486.5c-0.1-1.5-0.4-3.1-1-4.5-0.6-1.4-1.5-2.7-2.6-3.7-1.1-1.1-2.4-2-3.8-2.5-1.5-0.6-3-0.9-4.5-0.9l-37.2 0.6c-1.6 0-3.1 0.3-4.5 0.9-1.4 0.6-2.7 1.5-3.8 2.6-1 1.1-1.9 2.4-2.5 3.9-0.5 1.4-0.8 2.9-0.8 4.5v1.4c0 1.5 0.4 3.1 1 4.5 0.6 1.4 1.5 2.7 2.6 3.7 1.1 1.1 2.4 2 3.8 2.5 1.4 0.6 3 0.9 4.5 0.9l37.2-0.6c1.6 0 3.1-0.3 4.5-0.9 1.4-0.6 2.7-1.5 3.8-2.6 1-1.1 1.9-2.4 2.4-3.9 0.6-1.4 0.9-2.9 0.9-4.5z"/>
			<path id="Layer" fill-rule="evenodd" class="s2" d="m639.3 173.1q18.5-18.9 45.6-19.9c10.5-0.4 19.9-1.3 31.5-0.4q6.1 0.4 28.3 3.3 19.6 2.4 39.2 13.2c16.1 8.8 30 23.8 36 41.3q2 5.7 6 22.7 0.4 1.7 2.3 5.8c4.3 9 12.5 12.1 22.2 11.4 15.7-1.2 41.4-7.2 46.4 14.9 1.6 7.4 2.8 14.5 6.5 21.6q2.4 4.5 9 11.2c10.2 10.5 20.1 19.5 27.9 33 14.3 24.7 10.6 52.6-7.3 74.3q-3.1 3.7-13.6 14.5c-4.4 4.6-6.4 10.8-0.2 15.3 18.5 13.3 35.2 27.6 40 51 3.6 17.4-3.8 37.5-15.5 49.7-9.7 10.2-19.3 20.5-20.9 34-0.6 5.5 0.3 12.8 0.5 19 0.6 20.1-6.5 39.7-21.1 53.5-21 19.9-51.6 22.1-80 25.3-32.6 3.6-68.3 17.3-76.7 53.1-1.1 5.1-1.4 11.5-1.9 17.3-1.8 25-20.1 41-40.2 53.8q-18.8 12.1-37.6 24.2-29.2 18.8-51.1 40c-18 17.6-35.1 39.1-51.4 61.3-9.2 12.6-20 24.8-35.4 29.7-23.2 7.4-43.5-2-58.8-19.6q-16.6-19.1-33-38.4c-23.6-28-50.2-52.4-80.7-72.5-15-9.8-35.5-20.5-47.9-28.2-21.4-13.1-46.8-37.6-49.8-64.1q-0.7-7-1.5-14c-3.4-30.8-21.3-51.1-50.3-60.3-12-3.9-28.1-5.8-42-8.1q-29.3-4.9-47.4-26.9c-19.6-23.9-17.2-49.9-8.4-77.2q1.2-3.6 1-5.9c-0.6-8.8-11.8-17.1-18.9-22.7-6.2-4.9-11-12.7-14.9-19.6-21.6-37.3-6.2-82.3 29-103.9 6.8-4.1 14.7-7.3 22.5-10.2q0.6-0.2 1.1-0.6 0.4-0.5 0.7-1.1 0.2-0.6 0.2-1.2 0-0.6-0.2-1.2-4-9.5-7.6-19.5c-6.1-17-1.3-36.8 7.5-52.4 11.1-19.7 27.4-33.4 49.8-38.4 10.5-2.4 22.7-0.7 30.3-10.1 12.7-15.6 16.7-37 23.6-55.5q10.5-28.2 33-46.8c29.6-24.3 69.7-25.3 100.1-1.8q0.1 0.1 0.2 0.1 0.2 0.1 0.3 0.1 0.1 0.1 0.3 0.1 0.1 0 0.3 0 2-0.2 2-2.2 0.1-0.1 0.1-0.3 0-0.1 0-0.2 0-0.1 0.1-0.3 0-0.1 0.1-0.2c1.7-3.4 3.3-7.3 5.1-10.4q13-21.3 37.4-25.5c11.7-2 23.7 0.4 35.5-2.5q4.5-1.1 10.3-4.5c11.5-6.6 22-13.8 35.2-18.3 45-15.1 104.2-3.7 123 45.8 2.8 7.5 3.9 17.1 7.4 25q5 11.5 14.9 19.5 0.2 0.2 0.4 0.2 0.3 0.1 0.5 0.1 0.3 0 0.5-0.1 0.3-0.1 0.5-0.3zm-112.8 159.8c0.1 53.7-0.1 107.5-0.6 161.2q0 4.7-0.7 9.4-0.1 1 0.5 1.5 0.2 0.1 0.3 0.1 0.2 0 0.3 0 0.2-0.1 0.3-0.2 0.2-0.1 0.2-0.3c5.9-14.7 15.4-28.1 24.9-40.8q0.1-0.2 0.3-0.5 0.1-0.2 0.2-0.5 0.1-0.3 0.1-0.5 0-0.3 0-0.6-0.3-33.8-0.2-67.5c0.1-17.9 26-15.5 26 2.3q0.1 21.7 0 41.9 0 4 2.1 0.6 0.6-0.9 2.2-2.5c4.8-4.8 15.7-13.3 22.7-12.8q4.2 0.4 7.5 3.5c5.9 5.7 6.2 14.5-0.3 19.9q-8.4 7-16.6 14-46.7 39.9-66.6 98.2-2.4 7.1-2.4 10.3 0 23.8-1.4 46.9-0.2 2.2 0.9 0.3c2-3.3 3.2-7.1 5.1-10.5 9.1-15.7 19.1-28.1 32.6-43.8q21.6-25.1 48-45c2.9-2.2 7.9-4.7 11.7-4.5 5.6 0.3 10.6 4.6 11.9 10 1.5 6.3-2.8 12-8.2 16.1q-52.1 40.5-83.7 98.5-8.2 15-13.1 30.1c-2.9 8.9-4.5 17.3-4.5 27.3q0 109.7 0 218.3 0 3.4 2.1 0.8 1-1.2 2.1-2.8c2.7-3.6 5.8-5.2 6.2-10.2 0.7-9.4 1-18.7 1.3-28.1 0.2-3.6 1.1-7.7 1.2-11.6q0.2-5.1 0.8-8.5c0.9-5.5 1.5-11.8 2.3-16.6 12.1-73.1 43-142.1 85.3-202.6 11.8-16.8 28-38.2 41.5-58.5 9.8-14.9 19.3-31.3 28.9-46.9q8.2-13.2 21.7-39.8c7.2-14.2 13.5-28.2 16-44q2.5-16.3-8.4-26.6c-3.4-3.2-9.1-6.1-12.7-9.1-10.8-9-13.8-20.7-14.1-34.3-0.2-8.5-0.9-17.7-4.7-25.5-4.6-9.6-12.8-13.1-22.5-15.1q-14.3-3-19.7-4.9c-15.4-5.6-26.2-18.8-26.7-35.3-0.4-14.6 7.6-26.3 15.4-37.7q4.8-6.9 6.2-10.3c12-29.6-29.9-47-44.5-66.4-7.3-9.8-9.2-20.8-12.1-33.4-4.9-21-23-35.8-44-40.8-15-3.6-31.3-2.1-45.8 3.1-19.3 7-33.5 22.5-54.6 25.3-2.5 0.3-5 0.9-7.6 0.9-18.8-0.1-36.2-2.1-43.8 18.7-1.6 4.1-3.1 7.7-3.5 12.2q-1.2 12.3-1.6 24.7-0.3 11.9-8.1 20.8c-7.5 8.6-14.7 14.6-11.5 27.1 2.5 9.7 7.9 18.4 8.5 28.5 1 14.7-6.3 27.5-20.9 31.8q-6.5 1.9-13.2 3.6c-15.7 4.1-21.7 25.6-20.7 39.9q0.5 8.7 1.5 17.3 1.5 12.6 1 17.3-1.3 12.6-9.2 23c-4.5 5.9-12.2 14.6-16.1 21.8q-14.1 25.5-2.5 54.1c8.9 21.9 22.6 41.1 34.5 61.4 30.3 51.7 52.8 105.5 71.8 162.5q3.1 9.1 6.3 20.6c11.6 41.1 22.8 82.9 36.5 122.9q14.7 43.1 49.4 73.2 0.5 0.4 0.5-0.3c-0.1-14.4 0.1-29.2 0.1-43.3q-0.7-109.2 0.1-218.4c0.1-4.7-0.3-10.4-2.3-13.9q-3.4-6-6.5-12.2-31.1-60.8-88-98.1c-2.6-1.7-6.5-5-7.7-7-2.8-4.7-2.7-13.9 2.5-17.8 10.2-7.6 24.3 2.2 31.8 9.6q0.5 0.5 0.8 0.5 0.6 0 0.4-0.6-5-18.9-11.1-36.9c-2.2-6.7-6.8-19-0.1-24.2 11.1-8.6 20.5-0.6 24 10.3 7.7 23.9 14.7 47.8 19.2 72.6 0.5 3 1.6 6.5 3.4 8.5 10.9 12 21.9 24.9 30.1 39q1.3 2.3 1.6 4.8 0 0.1 0.1 0.3 0 0.1 0.2 0.2 0.1 0 0.2 0.1 0.2 0 0.3-0.1l0.4-0.1q0.3-0.1 0.3-0.4 0.3-47.7-0.1-95.1-0.2-14.3-1.4-21.5-2.3-13.6-8-26.2c-12.2-26.6-31-49.7-53.5-68.2-7.7-6.3-9.4-19.8 1.5-23.7 7.9-2.8 13.3 1 19.1 5.8 15.7 12.9 29.8 27.5 40.3 45q0.3 0.4 0.4 1 0.1 1.3 1.2 1.9 0.1 0.1 0.1 0.1 0.1 0 0.2-0.1 0.1 0 0.1-0.1 0.1-0.1 0.1-0.2c0.6-65 0.2-129.9 0.7-194.9q0-4.4 0.3-9c0.6-9.9-1.1-16 10.1-19.6q2.8-0.9 5.2-0.3 5.2 1.2 8.6 5.3c2.3 2.7 2.7 6.9 2.7 10.2q0.7 35 0.5 69.8-0.1 0.8 0.7 0.6 0.1 0 0.3-0.2 0.2-0.1 0.3-0.3c8.9-17.4 22.9-33.4 37.6-47 5.7-5.2 13-8.5 20.1-3.4 6.5 4.8 7 13.9 1.3 19.6-17.6 17.6-33.5 36.4-46.5 57.6-6.2 10-13.7 25.5-13.7 37.4zm-221.8-174.7c-19.3 5.3-33.5 20.5-42.5 37.8q-2.9 5.6-7.4 19.4c-7.3 22.4-18.2 58.1-43.1 66.9q-7.4 2.7-11.5 2.8-20.9 0.5-37 14c-15.1 12.7-22.1 31.7-13.6 50.4q5 11.1 6.1 14.6c5.6 17.8-5.9 32-22.1 37.8q-9.6 3.5-16.3 8c-23.2 15.5-33.1 47.5-15.2 71.2 4.8 6.5 13.4 13.1 17.9 17.3 10.5 10 17.8 18.5 16.4 34.3-1.8 19.4-14.4 40.6-2.7 59.2 7.5 12.1 20.7 20.3 34.6 22.8q15.8 2.9 31.6 5.7 43.1 7.7 67.8 42c11 15.3 13.9 30.8 16.2 49q1.4 10.7 3.2 15.6c5.6 15.5 19.1 27.7 32.6 35.9q15.1 9.2 55.7 33.4 3.8 2.2 7.4 4.7 0.2 0.1 0.3 0.1 0.2 0 0.4-0.1 0.2 0 0.3-0.2 0.2-0.1 0.2-0.3 0.1-0.4-0.2-1.1c-16-38.8-39.7-73.9-68-104.8q-26-28.3-40.2-41.3-16.3-14.8-26.7-24.8-22.4-21.7-41.7-47.8-3.2-4.2-3.8-7.6c-1.2-6.4 2.8-12.3 8.9-14.3 5.9-1.9 11.7 0.4 15.6 5.2q14.5 18.3 20 24.2 22.2 23.6 45.8 45.7c15.5 14.5 31.9 31.1 44.6 45.2q30.4 34.1 54.2 77 0.2 0.3 0.5 0.4 0.2 0.1 0.3 0.1 0.1 0.1 0.2 0.1 0.1-0.1 0.2-0.1 0-0.1 0.1-0.2 0-0.1-0.1-0.2-1.1-3.1-1.9-6.4c-15-61.3-39.5-121.4-68.9-177.1-11.1-21.1-23.8-41.4-36-61.8-7.5-12.6-14.3-25.6-21.3-38.5-17.3-31.6-44.3-58.5-70.2-81.9-7.9-7.2-7.3-19.6 3.3-23.2 5.6-1.9 13.3 1.6 17.2 5.1q16.1 14.1 30.9 29.8 0.5 0.5 1 0.1 0.1-0.1 0.1-0.7-0.4-12-0.3-24 0.1-6.4 1.5-9.4c5.2-11 22.6-8.2 24.3 3.9 1.9 13.4 1.2 27.6 1.2 41.3q0 0.1 0.1 0.2 0.1 0.1 0.2 0.1 0.2 0.1 0.3 0 0.1 0 0.2-0.2c3.1-5.6 4.6-10.2 9.2-16.7 6.6-9 16.7-16.5 15.6-30.8q-1.5-17.2-8.7-39.9c-3.4-10.7-7.8-21.8-10.5-31.8q-7.1-26.8-10.5-54.4c-0.6-5 0.1-13.3 4.7-16.5 9.7-6.7 19.1-0.9 20.9 9.9 3.4 20.9 7.4 41.6 13.8 61.8q0.1 0.2 0.2 0.3 0.2 0.1 0.4 0.1 0.2 0.1 0.4 0 0.2-0.1 0.3-0.3c8.6-14.1 21.1-18.6 36.7-21.8 1.7-0.4 3.8-1.3 4-3 1.2-7.6-5.2-16.3-7.2-22.8-4.5-14.6-2.8-31.3 7.2-43.3q3.3-3.9 6.6-7.6c8.9-9.8 0.8-19.4-7.3-25.4-7.8-5.9-17-11.3-26.7-13.1q-9.8-2.1-19.8 0zm442.8 93.6c-9.6 24.9-17.6 50.1-22.1 76.5q-1.3 7.2-0.8 14.5 0.9 14.9 2.7 29.7c1.5 11.9 8.3 16.6 17 23.3 9.1 7 14.4 16.9 17.3 27.9q0.5 1.9 1.5 0.3l6-9.2q0.1-0.1 0.2-0.3 0.1-0.1 0.1-0.3 0.1-0.2 0.1-0.4 0-0.2 0-0.4 0-40.8 0-82.1 0-3.3 0.3-5.1c1.3-8.3 8.7-12.8 16.3-10.2 3.8 1.3 9.1 5.5 9.1 9.8q-0.1 28.5 0.1 56.9 0.1 3.7-0.3 7.5 0 0.1 0.1 0.2 0 0.1 0.1 0.1 0.1 0.1 0.2 0.1 0.1 0.1 0.2 0 0.1 0 0.4-0.1 0.2 0 0.3-0.2c17.8-19.1 39.3-34.3 62.2-46.6 16.8-8.9 30.9 12.4 12.6 23.1-37.9 22.1-70.6 51.8-96.9 87.1q-3.7 4.9-7.2 10.6c-17.2 27.9-32.2 57.4-51.1 84.2q-1.5 2.1 0.6 0.6c16.6-11.2 36.1-19.7 55.1-25.9q7.4-2.5 11.2-2.2c9.7 0.7 16.3 12.1 8.6 20.1q-2.1 2.1-8.8 4.9-9.4 3.9-18.7 7.9-20.9 8.7-46.7 25.8c-34.7 22.9-59.6 53-81.4 88.2-15.4 25-29.6 50.9-40.1 77.8-11.2 28.7-20.2 57.9-25.3 88.3q-2.4 14-4.5 28.1-0.2 1.1-0.1 1.2 0.6 2.6 1.7 0.2 9.3-20.6 19-40.9c15.3-32.2 34.7-62.3 59-88.5 39.8-43 82.7-81.1 124.1-121.6q3.5-3.4 8.1-8.4c6.6-7.2 17-21.9 28.5-14.7 10.2 6.4 5.4 16.1-0.5 23.2q-19 22.9-41.2 42.6-0.8 0.7-0.8 0.8-1.1 2.2 1 1 11.6-6.5 24.5-10.4 14.5-4.4 40.8-7.3 17.9-2 22.8-3.1c18.7-4 37.4-13.5 41.5-33.5q0.8-3.6 0.6-15.3c-0.3-19.2 1.5-36.7 13-52.8q7.1-10 9.9-12.4 5.8-5.4 9.7-11c14.7-21.4-7-41.4-23-52.2q-7.2-4.9-12.1-10.3c-11.9-13.2-5.6-34.1 4.7-46.2 12.6-14.7 26.9-23.6 23.5-44.8-2.7-16.7-16-28.4-27.8-39.4-10.6-9.9-18.9-24.2-21.4-39.6-0.6-3.5-8.3-2-10.2-1.8-12.1 1.2-21.7 1.6-31.4-1.1-22.7-6.4-28.6-26.8-33.4-47-4.4-18.6-17.3-32.8-35.2-39.8q-13.8-5.4-28.6-7.3c-16.3-2.1-33-3.4-49.4-2.1-7.7 0.6-20.3 6.8-19.6 16.6 0.2 4.2 4.7 9.9 7 13.6 12 19.3 8.3 41.1-3.8 59.2q-4.8 7.2-9.6 14.4c-10.3 15 6.1 20.2 16.8 22.2 8.9 1.6 17.5 4.1 25.2 8.9q0.2 0.1 0.5 0.1 0.2 0 0.4 0 0.2-0.1 0.4-0.3 0.1-0.2 0.2-0.4 1.2-5.9 2.7-11.8 5.5-23.3 14-45.7 2.9-7.6 5.8-15.2c2.9-7.8 6.5-14.1 15.6-12.5q7.2 1.3 10.4 7.9c2.1 4.4 0 10.7-1.7 15zm-126.2 560.7q-0.2 0.4-0.2 0.8-0.1 0.1 0 0.2 0.1 0.1 0.2 0.2 0.2 0.1 0.3 0.1 0.1 0 0.3-0.1c23.9-17.7 49.4-33.6 74.4-50 7.1-4.6 16.8-12.8 18.4-22 1.2-6.4 0.8-14.7 2.3-21.3q3.9-17.8 14.6-32.9 0.4-0.6 0.1-1.2-0.1-0.2-0.2-0.1-33.6 30.1-63.7 63.5c-18.5 20.6-32.5 40.6-46.5 62.8z"/>
			<path id="Layer" class="s2" d="m835.7 487.9c0 1.6-0.3 3.1-0.9 4.5-0.5 1.5-1.4 2.8-2.4 3.9-1.1 1.1-2.4 2-3.8 2.6-1.4 0.6-2.9 0.9-4.5 0.9l-37.2 0.6c-1.5 0-3.1-0.3-4.5-0.9-1.4-0.5-2.7-1.4-3.8-2.5-1.1-1-2-2.3-2.6-3.7-0.6-1.4-1-3-1-4.5v-1.4c0-1.6 0.3-3.1 0.8-4.5 0.6-1.5 1.5-2.8 2.5-3.9 1.1-1.1 2.4-2 3.8-2.6 1.4-0.6 2.9-0.9 4.5-0.9l37.2-0.6c1.5 0 3 0.3 4.5 0.9 1.4 0.5 2.7 1.4 3.8 2.5 1.1 1 2 2.3 2.6 3.7 0.6 1.4 0.9 3 1 4.5z"/>
		</g>
		<filter id="f1">
			<feFlood flood-color="#8fdf54" flood-opacity="1" />
			<feBlend mode="normal" in2="SourceGraphic"/>
			<feComposite in2="SourceAlpha" operator="in" />
		</filter>
		<g id="Folder 1" filter="url(#f1)">
			<path id="Layer" class="s1" d="m525.9 494.1c0.5-53.7 0.7-107.5 0.6-161.2 0-11.9 7.5-27.4 13.7-37.4 13-21.2 28.9-40 46.5-57.6 5.7-5.7 5.2-14.8-1.3-19.6-7.1-5.1-14.4-1.8-20.1 3.4-14.7 13.6-28.7 29.6-37.6 47q-0.1 0.2-0.3 0.3-0.2 0.2-0.3 0.2-0.8 0.2-0.7-0.6 0.2-34.8-0.5-69.8c0-3.3-0.4-7.5-2.7-10.2q-3.4-4.1-8.6-5.3-2.4-0.6-5.2 0.3c-11.2 3.6-9.5 9.7-10.1 19.6q-0.3 4.6-0.3 9c-0.5 65-0.1 129.9-0.7 194.9q0 0.1-0.1 0.2 0 0.1-0.1 0.1-0.1 0.1-0.2 0.1 0 0-0.1-0.1-1.1-0.6-1.2-1.9-0.1-0.6-0.4-1c-10.5-17.5-24.6-32.1-40.3-45-5.8-4.8-11.2-8.6-19.1-5.8-10.9 3.9-9.2 17.4-1.5 23.7 22.5 18.5 41.3 41.6 53.5 68.2q5.7 12.6 8 26.2 1.2 7.2 1.4 21.5 0.4 47.4 0.1 95.1 0 0.3-0.3 0.4l-0.4 0.1q-0.1 0.1-0.3 0.1-0.1-0.1-0.2-0.1-0.2-0.1-0.2-0.2-0.1-0.2-0.1-0.3-0.3-2.5-1.6-4.8c-8.2-14.1-19.2-27-30.1-39-1.8-2-2.9-5.5-3.4-8.5-4.5-24.8-11.5-48.7-19.2-72.6-3.5-10.9-12.9-18.9-24-10.3-6.7 5.2-2.1 17.5 0.1 24.2q6.1 18 11.1 36.9 0.2 0.6-0.4 0.6-0.3 0-0.8-0.5c-7.5-7.4-21.6-17.2-31.8-9.6-5.2 3.9-5.3 13.1-2.5 17.8 1.2 2 5.1 5.3 7.7 7q56.9 37.3 88 98.1 3.1 6.2 6.5 12.2c2 3.5 2.4 9.2 2.3 13.9q-0.8 109.2-0.1 218.4c0 14.1-0.2 28.9-0.1 43.3q0 0.7-0.5 0.3-34.7-30.1-49.4-73.2c-13.7-40-24.9-81.8-36.5-122.9q-3.2-11.5-6.3-20.6c-19-57-41.5-110.8-71.8-162.5-11.9-20.3-25.6-39.5-34.5-61.4q-11.6-28.6 2.5-54.1c3.9-7.2 11.6-15.9 16.1-21.8q7.9-10.4 9.2-23 0.5-4.7-1-17.3-1-8.6-1.5-17.3c-1-14.3 5-35.8 20.7-39.9q6.7-1.7 13.2-3.6c14.6-4.3 21.9-17.1 20.9-31.8-0.6-10.1-6-18.8-8.5-28.5-3.2-12.5 4-18.5 11.5-27.1q7.8-8.9 8.1-20.8 0.4-12.4 1.6-24.7c0.4-4.5 1.9-8.1 3.5-12.2 7.6-20.8 25-18.8 43.8-18.7 2.6 0 5.1-0.6 7.6-0.9 21.1-2.8 35.3-18.3 54.6-25.3 14.5-5.2 30.8-6.7 45.8-3.1 21 5 39.1 19.8 44 40.8 2.9 12.6 4.8 23.6 12.1 33.4 14.6 19.4 56.5 36.8 44.5 66.4q-1.4 3.4-6.2 10.3c-7.8 11.4-15.8 23.1-15.4 37.7 0.5 16.5 11.3 29.7 26.7 35.3q5.4 1.9 19.7 4.9c9.7 2 17.9 5.5 22.5 15.1 3.8 7.8 4.5 17 4.7 25.5 0.3 13.6 3.3 25.3 14.1 34.3 3.6 3 9.3 5.9 12.7 9.1q10.9 10.3 8.4 26.6c-2.5 15.8-8.8 29.8-16 44q-13.5 26.6-21.7 39.8c-9.6 15.6-19.1 32-28.9 46.9-13.5 20.3-29.7 41.7-41.5 58.5-42.3 60.5-73.2 129.5-85.3 202.6-0.8 4.8-1.4 11.1-2.3 16.6q-0.6 3.4-0.8 8.5c-0.1 3.9-1 8-1.2 11.6-0.3 9.4-0.6 18.7-1.3 28.1-0.4 5-3.5 6.6-6.2 10.2q-1.1 1.6-2.1 2.8-2.1 2.6-2.1-0.8 0-108.6 0-218.3c0-10 1.6-18.4 4.5-27.3q4.9-15.1 13.1-30.1 31.6-58 83.7-98.5c5.4-4.1 9.7-9.8 8.2-16.1-1.3-5.4-6.3-9.7-11.9-10-3.8-0.2-8.8 2.3-11.7 4.5q-26.4 19.9-48 45c-13.5 15.7-23.5 28.1-32.6 43.8-1.9 3.4-3.1 7.2-5.1 10.5q-1.1 1.9-0.9-0.3 1.4-23.1 1.4-46.9 0-3.2 2.4-10.3 19.9-58.3 66.6-98.2 8.2-7 16.6-14c6.5-5.4 6.2-14.2 0.3-19.9q-3.3-3.1-7.5-3.5c-7-0.5-17.9 8-22.7 12.8q-1.6 1.6-2.2 2.5-2.1 3.4-2.1-0.6 0.1-20.2 0-41.9c0-17.8-25.9-20.2-26-2.3q-0.1 33.7 0.2 67.5 0 0.3 0 0.6 0 0.2-0.1 0.5-0.1 0.3-0.2 0.5-0.2 0.3-0.3 0.5c-9.5 12.7-19 26.1-24.9 40.8q0 0.2-0.2 0.3-0.1 0.1-0.3 0.2-0.1 0-0.3 0-0.1 0-0.3-0.1-0.6-0.5-0.5-1.5 0.7-4.7 0.7-9.4z"/>
			<path id="Layer" class="s1" d="m324.5 158.2c9.7 1.8 18.9 7.2 26.7 13.1 8.1 6 16.2 15.6 7.3 25.4q-3.3 3.7-6.6 7.6c-10 12-11.7 28.7-7.2 43.3 2 6.5 8.4 15.2 7.2 22.8-0.2 1.7-2.3 2.6-4 3-15.6 3.2-28.1 7.7-36.7 21.8q-0.1 0.2-0.3 0.3-0.2 0.1-0.4 0-0.2 0-0.4-0.1-0.1-0.1-0.2-0.3c-6.4-20.2-10.4-40.9-13.8-61.8-1.8-10.8-11.2-16.6-20.9-9.9-4.6 3.2-5.3 11.5-4.7 16.5q3.4 27.6 10.5 54.4c2.7 10 7.1 21.1 10.5 31.8q7.2 22.7 8.7 39.9c1.1 14.3-9 21.8-15.6 30.8-4.6 6.5-6.1 11.1-9.2 16.7q-0.1 0.2-0.2 0.2-0.1 0.1-0.3 0-0.1 0-0.2-0.1-0.1-0.1-0.1-0.2c0-13.7 0.7-27.9-1.2-41.3-1.7-12.1-19.1-14.9-24.3-3.9q-1.4 3-1.5 9.4-0.1 12 0.3 24 0 0.6-0.1 0.7-0.5 0.4-1-0.1-14.8-15.7-30.9-29.8c-3.9-3.5-11.6-7-17.2-5.1-10.6 3.6-11.2 16-3.3 23.2 25.9 23.4 52.9 50.3 70.2 81.9 7 12.9 13.8 25.9 21.3 38.5 12.2 20.4 24.9 40.7 36 61.8 29.4 55.7 53.9 115.8 68.9 177.1q0.8 3.3 1.9 6.4 0.1 0.1 0.1 0.2-0.1 0.1-0.1 0.2-0.1 0-0.2 0.1-0.1 0-0.2-0.1-0.1 0-0.3-0.1-0.3-0.1-0.5-0.4-23.8-42.9-54.2-77c-12.7-14.1-29.1-30.7-44.6-45.2q-23.6-22.1-45.8-45.7-5.5-5.9-20-24.2c-3.9-4.8-9.7-7.1-15.6-5.2-6.1 2-10.1 7.9-8.9 14.3q0.6 3.4 3.8 7.6 19.3 26.1 41.7 47.8 10.4 10 26.7 24.8 14.2 13 40.2 41.3c28.3 30.9 52 66 68 104.8q0.3 0.7 0.2 1.1 0 0.2-0.2 0.3-0.1 0.2-0.3 0.2-0.2 0.1-0.4 0.1-0.1 0-0.3-0.1-3.6-2.5-7.4-4.7-40.6-24.2-55.7-33.4c-13.5-8.2-27-20.4-32.6-35.9q-1.8-4.9-3.2-15.6c-2.3-18.2-5.2-33.7-16.2-49q-24.7-34.3-67.8-42-15.8-2.8-31.6-5.7c-13.9-2.5-27.1-10.7-34.6-22.8-11.7-18.6 0.9-39.8 2.7-59.2 1.4-15.8-5.9-24.3-16.4-34.3-4.5-4.2-13.1-10.8-17.9-17.3-17.9-23.7-8-55.7 15.2-71.2q6.7-4.5 16.3-8c16.2-5.8 27.7-20 22.1-37.8q-1.1-3.5-6.1-14.6c-8.5-18.7-1.5-37.7 13.6-50.4q16.1-13.5 37-14 4.1-0.1 11.5-2.8c24.9-8.8 35.8-44.5 43.1-66.9q4.5-13.8 7.4-19.4c9-17.3 23.2-32.5 42.5-37.8 2.5 0.2 4.3 0.2 7-0.3q2.8-0.5 5.6 0c2.8 0.5 4.7 0.5 7.2 0.3z"/>
			<path id="Layer" fill-rule="evenodd" class="s1" d="m725.4 328.3c4.5-26.4 12.5-51.6 22.1-76.5 1.7-4.3 3.8-10.6 1.7-15q-3.2-6.6-10.4-7.9c-9.1-1.6-12.7 4.7-15.6 12.5q-2.9 7.6-5.8 15.2-8.5 22.4-14 45.7-1.5 5.9-2.7 11.8-0.1 0.2-0.2 0.4-0.2 0.2-0.4 0.3-0.2 0-0.4 0-0.3 0-0.5-0.1c-7.7-4.8-16.3-7.3-25.2-8.9-10.7-2-27.1-7.2-16.8-22.2q4.8-7.2 9.6-14.4c12.1-18.1 15.8-39.9 3.8-59.2-2.3-3.7-6.8-9.4-7-13.6-0.7-9.8 11.9-16 19.6-16.6 16.4-1.3 33.1 0 49.4 2.1q14.8 1.9 28.6 7.3c17.9 7 30.8 21.2 35.2 39.8 4.8 20.2 10.7 40.6 33.4 47 9.7 2.7 19.3 2.3 31.4 1.1 1.9-0.2 9.6-1.7 10.2 1.8 2.5 15.4 10.8 29.7 21.4 39.6 11.8 11 25.1 22.7 27.8 39.4 3.4 21.2-10.9 30.1-23.5 44.8-10.3 12.1-16.6 33-4.7 46.2q4.9 5.4 12.1 10.3c16 10.8 37.7 30.8 23 52.2q-3.9 5.6-9.7 11-2.8 2.4-9.9 12.4c-11.5 16.1-13.3 33.6-13 52.8q0.2 11.7-0.6 15.3c-4.1 20-22.8 29.5-41.5 33.5q-4.9 1.1-22.8 3.1-26.3 2.9-40.8 7.3-12.9 3.9-24.5 10.4-2.1 1.2-1-1 0-0.1 0.8-0.8 22.2-19.7 41.2-42.6c5.9-7.1 10.7-16.8 0.5-23.2-11.5-7.2-21.9 7.5-28.5 14.7q-4.6 5-8.1 8.4c-41.4 40.5-84.3 78.6-124.1 121.6-24.3 26.2-43.7 56.3-59 88.5q-9.7 20.3-19 40.9-1.1 2.4-1.7-0.2-0.1-0.1 0.1-1.2 2.1-14.1 4.5-28.1c5.1-30.4 14.1-59.6 25.3-88.3 10.5-26.9 24.7-52.8 40.1-77.8 21.8-35.2 46.7-65.3 81.4-88.2q25.8-17.1 46.7-25.8 9.3-4 18.7-7.9 6.7-2.8 8.8-4.9c7.7-8 1.1-19.4-8.6-20.1q-3.8-0.3-11.2 2.2c-19 6.2-38.5 14.7-55.1 25.9q-2.1 1.5-0.6-0.6c18.9-26.8 33.9-56.3 51.1-84.2q3.5-5.7 7.2-10.6c26.3-35.3 59-65 96.9-87.1 18.3-10.7 4.2-32-12.6-23.1-22.9 12.3-44.4 27.5-62.2 46.6q-0.1 0.2-0.3 0.2-0.3 0.1-0.4 0.1-0.1 0.1-0.2 0-0.1 0-0.2-0.1-0.1 0-0.1-0.1-0.1-0.1-0.1-0.2 0.4-3.8 0.3-7.5-0.2-28.4-0.1-56.9c0-4.3-5.3-8.5-9.1-9.8-7.6-2.6-15 1.9-16.3 10.2q-0.3 1.8-0.3 5.1 0 41.3 0 82.1 0 0.2 0 0.4 0 0.2-0.1 0.4 0 0.2-0.1 0.3-0.1 0.2-0.2 0.3l-6 9.2q-1 1.6-1.5-0.3c-2.9-11-8.2-20.9-17.3-27.9-8.7-6.7-15.5-11.4-17-23.3q-1.8-14.8-2.7-29.7-0.5-7.3 0.8-14.5zm110.3 158.2c-0.1-1.5-0.4-3.1-1-4.5-0.6-1.4-1.5-2.7-2.6-3.7-1.1-1.1-2.4-2-3.8-2.5-1.5-0.6-3-0.9-4.5-0.9l-37.2 0.6c-1.6 0-3.1 0.3-4.5 0.9-1.4 0.6-2.7 1.5-3.8 2.6-1 1.1-1.9 2.4-2.5 3.9-0.5 1.4-0.8 2.9-0.8 4.5v1.4c0 1.5 0.4 3.1 1 4.5 0.6 1.4 1.5 2.7 2.6 3.7 1.1 1.1 2.4 2 3.8 2.5 1.4 0.6 3 0.9 4.5 0.9l37.2-0.6c1.6 0 3.1-0.3 4.5-0.9 1.4-0.6 2.7-1.5 3.8-2.6 1-1.1 1.9-2.4 2.4-3.9 0.6-1.4 0.9-2.9 0.9-4.5z"/>
		</g>
	</g>
	<text id="lettuce" style="transform: matrix(2.885,0,0,2.885,208.511,1119.027)" >
		<tspan x="0" y="0" class="t3">l</tspan><tspan  y="0" class="t3">e</tspan><tspan  y="0" class="t3">t</tspan><tspan  y="0" class="t3">t</tspan><tspan  y="0" class="t3">u</tspan><tspan  y="0" class="t3">c</tspan><tspan  y="0" class="t3">e
</tspan>
	</text>
</svg>